<?xml version="1.0" standalone="yes"?>
<svg xmlns="http://www.w3.org/2000/svg" width="2104" height="2104">
<path style="fill:#ffffff; stroke:none;" d="M0 0L0 2104L2104 2104L2104 0L0 0z"/>
<path style="fill:#9fd0fb; stroke:none;" d="M644 49L644 50L1201 50L1201 389L1202 365L1202 312L1202 129L1202 70L1200.4 50.0278L1190 49L1162 49L1056 49L644 49M1359 49L1359 50L1465 50L1433 49L1359 49M427 782L426 782L426 1148L426 1256C426 1269.41 421.971 1290.43 426.603 1303C428.75 1308.82 435.715 1313.72 440 1318L470 1348L579 1457L745 1623L795 1673C801.77 1679.77 809.387 1690.67 818 1694.97C825.928 1698.94 841.218 1696 850 1696L926 1696L1201 1696L1201 2048L817 2048L703 2048C689.042 2048 667.075 2052.22 654 2047.4C646.131 2044.5 638.832 2033.84 633 2028C616.521 2011.5 600.506 1994.51 584 1978C524.665 1918.66 466.334 1858.33 407 1799C326.833 1718.83 248.177 1637.18 168 1557C143.166 1532.17 118.846 1506.85 94 1482C83.331 1471.33 65.8234 1458.6 59.0278 1445C56.701 1440.34 58 1433.08 58 1428L58 1388L58 1247L58 822L58 697L58 660C58 654.79 56.8559 647.938 58.7423 643C60.9882 637.121 67.6584 632.342 72 628L102 598C136.783 563.217 171.869 528.482 205.961 493.001C300.956 394.134 398.042 296.958 495 200C528.684 166.316 561.992 132.23 595.424 98.2855C610.606 82.871 629.564 67.6545 642 50C631.84 54.738 622.833 66.8624 615.17 74.9607C600.084 90.9032 584.528 106.472 569 122C512.004 178.996 456.003 236.997 399 294C317.829 375.171 238.163 457.837 157 539C133.491 562.509 110.508 586.492 87 610C78.621 618.379 61.7311 629.805 57.6034 641C54.5687 649.231 57 662.258 57 671L57 738L57 967L57 1305L57 1404C57 1416.3 53.3465 1435.49 57.7423 1447C59.9882 1452.88 66.6584 1457.66 71 1462L100 1491C134.07 1525.07 168.721 1558.96 201.83 1593.98C304.462 1702.51 411.751 1806.99 516.996 1913C546.055 1942.27 575.754 1971.27 604.015 2001.33C614.46 2012.44 625.212 2023.21 636 2034C640.798 2038.8 645.857 2045.75 652 2048.82C660.726 2053.18 677.342 2050 687 2050L771 2050L1073 2050L1167 2050C1174.24 2050 1194.59 2053.56 1200.26 2048.97C1204.25 2045.74 1202 2032.68 1202 2028L1202 1968L1202 1774L1202 1720C1202 1713.86 1204.13 1702.87 1201.4 1697.32C1199.06 1692.56 1183.58 1695 1179 1695L1110 1695L898 1695L841 1695C834.428 1695 823.744 1697.02 818 1693.4C806.86 1686.36 797.309 1673.31 788 1664L727 1603L533 1409C508.001 1384 482.913 1359.09 458.004 1334C449.434 1325.37 431.817 1313.43 427.603 1302C422.971 1289.43 427 1268.41 427 1255L427 1147L427 782z"/>
<path style="fill:#0289f9; stroke:none;" d="M1201 2048L1201 1696L927 1696L851 1696C842.218 1696 826.928 1698.94 819 1694.97C812.899 1691.92 807.773 1684.77 803 1680L770 1647L660 1537L493 1370L446 1323C440.162 1317.16 429.506 1309.87 426.603 1302C423.098 1292.49 426 1277.12 426 1267L426 1187L426 917L426 824C426 812.239 422.538 794.006 426.742 783C431.077 771.652 447.487 760.513 456 752L527 681L729 479L790 418C798.189 409.811 807.606 396.225 818 391.028C825.928 387.064 841.218 390 850 390L926 390L1201 390L1201 50L800 50L688 50L656 50C651.689 50 645.969 49.0432 642 51.0278C627.816 58.1196 615.223 77.7765 604 89C574.158 118.844 544.833 149.167 515 179C412.002 281.998 310.994 387.006 208 490C172.488 525.512 137.503 561.497 102 597C91.4036 607.596 80.5618 618.002 70.2863 628.911C66.4005 633.036 60.4988 637.495 58.5887 643.004C54.4009 655.083 58 674.209 58 687L58 787L58 1121L58 1348L58 1415C58 1423.74 55.5687 1436.77 58.6034 1445C62.286 1454.99 76.4887 1464.38 83.6651 1472.29C107.167 1498.18 133.389 1521.67 157.626 1546.88C242.269 1634.93 328.642 1721.64 415 1808C471.002 1864 526.006 1921.01 582 1977C597.287 1992.29 612.854 2007.35 627.765 2023C634.89 2030.48 642.697 2042.32 652 2046.97C662.706 2052.33 685.05 2048 697 2048L807 2048L1201 2048z"/>
<path style="fill:#9d9d9e; stroke:none;" d="M1357 50L1357 300L1357 374C1357 383.292 1354.38 397.258 1357.6 406C1360.26 413.198 1369.68 419.675 1375 425L1418 468L1524 574C1541.22 591.219 1558.11 612.986 1578 627C1563.99 607.105 1542.22 590.219 1525 573L1418 466L1376 424C1370.68 418.675 1361.26 412.198 1358.6 405C1355.95 397.792 1358 386.641 1358 379L1358 322L1358 129L1358 75C1358 67.52 1359.9 56.9187 1357 50z"/>
<path style="fill:#59595b; stroke:none;" d="M1358 50L1358 306L1358 377C1358 385.293 1355.28 399.502 1359.03 407C1364.58 418.106 1379.24 428.244 1388 437L1452 501L1666 715L1713 762C1718.93 767.929 1729.21 775.026 1732.26 783C1736.37 793.755 1733 811.511 1733 823C1733 830.884 1736.39 849.058 1731.97 855.682C1728.25 861.266 1707.2 858 1701 858L1606 858L1216 858L1216 571L1216 501C1216 496.044 1218.55 480.321 1214.4 477.028C1211.62 474.825 1205.33 476 1202 476L1169 476L1043 476L927 476L899 476C896.197 476 891.025 475.082 889.028 477.603C886.338 481 888 489.875 888 494L888 537L888 704L888 1353L888 1537L888 1584C888 1588.32 886.221 1597.85 889.028 1601.4C890.891 1603.75 895.383 1603 898 1603L923 1603L1026 1603L1165 1603L1201 1603C1204.53 1603 1211.46 1604.3 1214.4 1601.97C1218.25 1598.92 1216 1585.53 1216 1581L1216 1518L1216 1298L1216 1243C1216 1238.3 1213.98 1227.29 1217.6 1223.74C1222.23 1219.21 1237.88 1222 1244 1222L1319 1222L1618 1222L1705 1222C1711.38 1222 1729.47 1218.82 1732.4 1226.06C1735.69 1234.21 1733 1248.24 1733 1257C1733 1269.86 1736.84 1289.94 1732.4 1302C1729.12 1310.88 1716.6 1319.4 1710 1326L1656 1380L1454 1582L1390 1646C1380.38 1655.62 1366.87 1665.49 1359.6 1677C1355.28 1683.85 1358 1698.1 1358 1706L1358 1779L1358 2053L1417 2053L1444 2052.26L1468.17 2030.33L1536 1965L1739.75 1768.58L1947 1569.09L2017 1502L2044.97 1474L2046 1456L2046 1415L2046 1269L2046 794L2046 661L2046 624L2044.97 608L2020 582.911L1964 528.996L1752 324.999L1555 135L1490.18 72.6689L1466 50.6035L1433 50L1358 50z"/>
<path style="fill:#9d9d9e; stroke:none;" d="M1467 50C1479.93 68.3623 1500.79 83.7788 1517.09 99.1844C1545.29 125.838 1573.23 152.923 1601 180.015C1695.42 272.117 1789.5 365.019 1886 454.911C1921.5 487.984 1955.32 522.897 1990.96 555.816C2003.54 567.439 2015.82 579.417 2028.17 591.289C2033.52 596.436 2041.62 602.293 2044.97 609C2048.61 616.283 2046 629.952 2046 638L2046 708L2046 959L2046 1319L2046 1426C2046 1439.14 2049.94 1459.69 2045.4 1472C2042.85 1478.9 2034.27 1484.4 2029 1489.17C2017.99 1499.13 2007.93 1510.14 1996.99 1520.17C1959.96 1554.12 1923.53 1589.49 1888 1625C1793.53 1719.43 1695.54 1810.73 1599 1903.04C1562.18 1938.24 1525.92 1973.99 1488.99 2009.09C1474.34 2023 1460.51 2040.37 1444 2052L1444 2053C1452.84 2050.52 1459.36 2040.18 1466 2034.17C1485.22 2016.78 1502.78 1997.56 1522 1980.17C1594.66 1914.42 1663.17 1843.76 1734 1776.04C1805.86 1707.32 1876.25 1636.86 1949 1569.09C1972.62 1547.09 1996.17 1524.83 2019 1502C2027.34 1493.66 2041.67 1484.6 2046.97 1474C2050.61 1466.72 2048 1453.05 2048 1445L2048 1374L2048 1120L2048 761L2048 655C2048 641.865 2051.94 621.311 2047.4 609C2044.68 601.632 2034.79 594.603 2029 589.576C2018.45 580.407 2009.08 569.886 1998.71 560.486C1961.13 526.385 1926.63 488.879 1889 454.83C1856.74 425.643 1826.44 394.106 1795 364.039C1728.53 300.477 1662.26 236.67 1595.96 172.907C1567.62 145.647 1539 118.587 1511 90.9854C1497.96 78.1354 1483.25 58.428 1467 50z"/>
<path style="fill:#9fd0fb; stroke:none;" d="M1468.67 50.3333L1469.33 50.6667L1468.67 50.3333M1470 51L1471 52L1470 51M1471 52L1472 53L1471 52M1472 53L1473 54L1472 53M1473 54L1474 55L1473 54M1474 55L1475 56L1474 55M1475 56L1476 57L1475 56M1476 57L1477 58L1476 57M1477 58L1478 59L1477 58M1478 59L1479 60L1478 59M1479 60L1480 61L1479 60M1480 61L1481 62L1480 61M1481 62L1482 63L1481 62M1482 63L1483 64L1482 63M1483 64L1484 65L1483 64M1484 65L1485 66L1484 65M1485 66L1486 67L1485 66M1486 67L1487 68L1486 67M1487 68L1488 69L1487 68M1488 69L1489 70L1488 69M1489 70L1492 72L1489 70z"/>
<path style="fill:#9d9d9e; stroke:none;" d="M621 71L622 72L621 71z"/>
<path style="fill:#9fd0fb; stroke:none;" d="M1492 72L1493 73L1492 72z"/>
<path style="fill:#9d9d9e; stroke:none;" d="M619 73L620 74L619 73z"/>
<path style="fill:#9fd0fb; stroke:none;" d="M1493 73L1494 74L1493 73z"/>
<path style="fill:#9d9d9e; stroke:none;" d="M618 74L619 75L618 74z"/>
<path style="fill:#9fd0fb; stroke:none;" d="M1494 74L1495 75L1494 74z"/>
<path style="fill:#9d9d9e; stroke:none;" d="M617 75L618 76L617 75z"/>
<path style="fill:#9fd0fb; stroke:none;" d="M1495 75L1496 76L1495 75z"/>
<path style="fill:#9d9d9e; stroke:none;" d="M616 76L617 77L616 76z"/>
<path style="fill:#9fd0fb; stroke:none;" d="M1496 76L1497 77L1496 76z"/>
<path style="fill:#9d9d9e; stroke:none;" d="M615 77L616 78L615 77z"/>
<path style="fill:#9fd0fb; stroke:none;" d="M1497 77L1498 78L1497 77M1498 78L1499 79L1498 78z"/>
<path style="fill:#9d9d9e; stroke:none;" d="M613 79L614 80L613 79z"/>
<path style="fill:#9fd0fb; stroke:none;" d="M1499 79L1500 80L1499 79z"/>
<path style="fill:#9d9d9e; stroke:none;" d="M612 80L613 81L612 80z"/>
<path style="fill:#9fd0fb; stroke:none;" d="M1500 80L1501 81L1500 80M1501 81L1502 82L1501 81M1502 82L1503 83L1502 82M1503 83L1504 84L1503 83M1504 84L1505 85L1504 84M1505 85L1506 86L1505 85z"/>
<path style="fill:#9d9d9e; stroke:none;" d="M606 86L607 87L606 86z"/>
<path style="fill:#9fd0fb; stroke:none;" d="M1506 86L1507 87L1506 86M1507 87L1508 88L1507 87M1508 88L1509 89L1508 88M1509 89L1510 90L1509 89M1510 90L1511 91L1510 90M1511 91L1517 96L1511 91M1517 96L1517 98L1519 98L1517 96z"/>
<path style="fill:#9d9d9e; stroke:none;" d="M595 97L596 98L595 97z"/>
<path style="fill:#9fd0fb; stroke:none;" d="M1519 98L1520 99L1519 98M1520 99L1521 100L1520 99M1521 100L1522 101L1521 100M1522 101L1523 102L1522 101M1523 102L1524 103L1523 102M1524 103L1525 104L1524 103M1525 104L1526 105L1525 104M1526 105L1527 106L1526 105M1527 106L1528 107L1527 106M1528 107L1529 108L1528 107M1529 108L1530 109L1529 108M1530 109L1531 110L1530 109M1531 110L1532 111L1531 110M1532 111L1533 112L1532 111M1533 112L1534 113L1533 112M1534 113L1535 114L1534 113M1535 114L1536 115L1535 114M1536 115L1537 116L1536 115M1537 116L1538 117L1537 116M1538 117L1539 118L1538 117M1539 118L1540 119L1539 118M1540 119L1541 120L1540 119M1541 120L1543 122L1543 120L1541 120M1543 122L1544 123L1543 122M1544 123L1545 124L1544 123M1545.67 124.333L1546.33 124.667L1545.67 124.333M1547 125L1547 127L1549 127L1547 125M1549 127L1550 128L1549 127M1550 128L1551 129L1550 128M1551 129L1552 130L1551 129M1552 130L1553 131L1552 130M1553 131L1554 132L1553 131M1554 132L1555 133L1554 132M1555 133L1556 134L1555 133M1556 134L1557 135L1556 134M1557 135L1558 136L1557 135M1558 136L1559 137L1558 136M1559 137L1560 138L1559 137M1560 138L1561 139L1560 138M1561 139L1562 140L1561 139M1562 140L1563 141L1562 140M1563 141L1564 142L1563 141M1564 142L1565 143L1564 142M1565 143L1566 144L1565 143M1566 144L1567 145L1566 144M1567 145L1568 146L1567 145M1568 146L1569 147L1568 146M1569 147L1570 148L1569 147M1570 148L1571 149L1570 148M1571 149L1573 151L1573 149L1571 149z"/>
<path style="fill:#9d9d9e; stroke:none;" d="M542 151L543 152L542 151z"/>
<path style="fill:#9fd0fb; stroke:none;" d="M1573.67 151.333L1574.33 151.667L1573.67 151.333z"/>
<path style="fill:#9d9d9e; stroke:none;" d="M541 152L542 153L541 152z"/>
<path style="fill:#9fd0fb; stroke:none;" d="M1575 152L1576 153L1575 152M1576 153L1577 154L1576 153z"/>
<path style="fill:#9d9d9e; stroke:none;" d="M539 154L540 155L539 154z"/>
<path style="fill:#9fd0fb; stroke:none;" d="M1577 154L1578 155L1577 154z"/>
<path style="fill:#9d9d9e; stroke:none;" d="M538 155L539 156L538 155z"/>
<path style="fill:#9fd0fb; stroke:none;" d="M1578 155L1579 156L1578 155M1579 156L1580 157L1579 156z"/>
<path style="fill:#9d9d9e; stroke:none;" d="M536 157L537 158L536 157z"/>
<path style="fill:#9fd0fb; stroke:none;" d="M1580 157L1581 158L1580 157M1581 158L1582 159L1581 158z"/>
<path style="fill:#9d9d9e; stroke:none;" d="M534 159L535 160L534 159z"/>
<path style="fill:#9fd0fb; stroke:none;" d="M1582 159L1583 160L1582 159M1583 160L1584 161L1583 160z"/>
<path style="fill:#9d9d9e; stroke:none;" d="M532 161L533 162L532 161z"/>
<path style="fill:#9fd0fb; stroke:none;" d="M1584 161L1585 162L1584 161M1585 162L1586 163L1585 162M1586 163L1587 164L1586 163z"/>
<path style="fill:#9d9d9e; stroke:none;" d="M529 164L530 165L529 164z"/>
<path style="fill:#9fd0fb; stroke:none;" d="M1587 164L1588 165L1587 164M1588 165L1589 166L1588 165z"/>
<path style="fill:#9d9d9e; stroke:none;" d="M527 166L528 167L527 166z"/>
<path style="fill:#9fd0fb; stroke:none;" d="M1589 166L1590 167L1589 166z"/>
<path style="fill:#9d9d9e; stroke:none;" d="M526 167L527 168L526 167z"/>
<path style="fill:#9fd0fb; stroke:none;" d="M1590 167L1591 168L1590 167M1591 168L1592 169L1591 168z"/>
<path style="fill:#9d9d9e; stroke:none;" d="M524 169L525 170L524 169z"/>
<path style="fill:#9fd0fb; stroke:none;" d="M1592 169L1593 170L1592 169M1593 170L1594 171L1593 170M1594 171L1595 172L1594 171M1595 172L1596 173L1595 172M1596 173L1597 174L1596 173M1597 174L1599 176L1599 174L1597 174z"/>
<path style="fill:#9d9d9e; stroke:none;" d="M518 175L519 176L518 175z"/>
<path style="fill:#9fd0fb; stroke:none;" d="M1600 176L1600 178L1602 178L1600 176M1602 178L1603 179L1602 178M1603 179L1604 180L1603 179M1604 180L1605 181L1604 180M1605 181L1606 182L1605 181M1606 182L1607 183L1606 182M1607 183L1608 184L1607 183M1608 184L1609 185L1608 184M1609 185L1610 186L1609 185M1610 186L1611 187L1610 186M1611 187L1612 188L1611 187M1612 188L1613 189L1612 188M1613 189L1614 190L1613 189M1614 190L1615 191L1614 190M1615 191L1616 192L1615 191M1616 192L1617 193L1616 192M1617 193L1618 194L1617 193M1618 194L1619 195L1618 194M1619 195L1620 196L1619 195M1620 196L1621 197L1620 196M1621 197L1622 198L1621 197M1622 198L1624 200L1624 198L1622 198M1624 200L1627 202L1624 200M1627 202L1628 203L1627 202M1628 203L1628 205L1630 205L1628 203M1630 205L1631 206L1630 205M1631 206L1632 207L1631 206M1632 207L1633 208L1632 207M1633 208L1634 209L1633 208M1634 209L1635 210L1634 209M1635 210L1636 211L1635 210M1636 211L1637 212L1636 211M1637 212L1638 213L1637 212M1638 213L1639 214L1638 213M1639 214L1640 215L1639 214M1640 215L1641 216L1640 215M1641 216L1642 217L1641 216M1642 217L1643 218L1642 217M1643 218L1644 219L1643 218M1644 219L1645 220L1644 219M1645 220L1646 221L1645 220M1646 221L1647 222L1646 221M1647 222L1648 223L1647 222M1648 223L1649 224L1648 223M1649 224L1650 225L1649 224M1650 225L1653 227L1650 225M1653 227L1654 228L1653 227M1654 228L1655 229L1654 228M1655 229L1656 230L1655 229M1656 230L1657 231L1656 230M1657 231L1658 232L1657 231M1658 232L1659 233L1658 232M1659 233L1660 234L1659 233M1660 234L1661 235L1660 234M1661 235L1662 236L1661 235M1662 236L1663 237L1662 236z"/>
<path style="fill:#9d9d9e; stroke:none;" d="M457 237L458 238L457 237z"/>
<path style="fill:#9fd0fb; stroke:none;" d="M1663 237L1664 238L1663 237M1664 238L1665 239L1664 238z"/>
<path style="fill:#9d9d9e; stroke:none;" d="M455 239L456 240L455 239z"/>
<path style="fill:#9fd0fb; stroke:none;" d="M1665 239L1666 240L1665 239M1666 240L1667 241L1666 240z"/>
<path style="fill:#9d9d9e; stroke:none;" d="M453 241L454 242L453 241z"/>
<path style="fill:#9fd0fb; stroke:none;" d="M1667 241L1668 242L1667 241z"/>
<path style="fill:#9d9d9e; stroke:none;" d="M452 242L453 243L452 242z"/>
<path style="fill:#9fd0fb; stroke:none;" d="M1668 242L1669 243L1668 242M1669 243L1670 244L1669 243z"/>
<path style="fill:#9d9d9e; stroke:none;" d="M450 244L451 245L450 244z"/>
<path style="fill:#9fd0fb; stroke:none;" d="M1670 244L1671 245L1670 244z"/>
<path style="fill:#9d9d9e; stroke:none;" d="M449 245L450 246L449 245z"/>
<path style="fill:#9fd0fb; stroke:none;" d="M1671 245L1672 246L1671 245z"/>
<path style="fill:#9d9d9e; stroke:none;" d="M448 246L449 247L448 246z"/>
<path style="fill:#9fd0fb; stroke:none;" d="M1672 246L1673 247L1672 246M1673 247L1675 249L1675 247L1673 247M1675 249L1677 251L1677 249L1675 249M1677 251L1678 252L1677 251M1679 252L1683 256L1679 252M1683 256L1684 257L1683 256M1684 257L1685 258L1684 257M1685 258L1686 259L1685 258M1686 259L1687 260L1686 259M1687 260L1688 261L1687 260M1688 261L1689 262L1688 261M1689 262L1690 263L1689 262M1690 263L1691 264L1690 263M1691 264L1692 265L1691 264M1692 265L1693 266L1692 265M1693 266L1694 267L1693 266M1694 267L1695 268L1694 267M1695 268L1696 269L1695 268M1696 269L1697 270L1696 269M1697 270L1698 271L1697 270M1698 271L1699 272L1698 271M1699 272L1700 273L1699 272M1700 273L1701 274L1700 273M1701 274L1703 276L1703 274L1701 274M1703 276L1705 278L1705 276L1703 276M1705.67 278.333L1706.33 278.667L1705.67 278.333M1707 279L1708 280L1707 279M1708 280L1709 281L1708 280M1709 281L1710 282L1709 281M1710 282L1711 283L1710 282M1711 283L1712 284L1711 283M1712 284L1713 285L1712 284M1713 285L1714 286L1713 285M1714 286L1715 287L1714 286M1715 287L1716 288L1715 287M1716 288L1717 289L1716 288M1717 289L1718 290L1717 289M1718 290L1719 291L1718 290M1719 291L1720 292L1719 291M1720 292L1721 293L1720 292M1721 293L1722 294L1721 293M1722 294L1723 295L1722 294M1723 295L1724 296L1723 295M1724 296L1725 297L1724 296M1725 297L1726 298L1725 297M1726 298L1727 299L1726 298M1727 299L1728 300L1727 299M1728 300L1729 301L1728 300M1729 301L1731 303L1731 301L1729 301M1731 303L1734 305L1731 303M1734 305L1735 306L1734 305M1735 306L1736 307L1735 306M1736 307L1737 308L1736 307M1737 308L1738 309L1737 308M1738 309L1739 310L1738 309M1739 310L1740 311L1739 310M1740 311L1741 312L1740 311M1741 312L1742 313L1741 312M1742 313L1743 314L1742 313M1743 314L1744 315L1743 314M1744 315L1745 316L1744 315M1745 316L1746 317L1745 316M1746 317L1747 318L1746 317M1747 318L1748 319L1747 318M1748 319L1749 320L1748 319z"/>
<path style="fill:#9d9d9e; stroke:none;" d="M375 320L376 321L375 320z"/>
<path style="fill:#9fd0fb; stroke:none;" d="M1749 320L1750 321L1749 320M1750 321L1751 322L1750 321M1751 322L1752 323L1751 322M1752 323L1753 324L1752 323z"/>
<path style="fill:#9d9d9e; stroke:none;" d="M371 324L372 325L371 324z"/>
<path style="fill:#9fd0fb; stroke:none;" d="M1753 324L1754 325L1753 324M1754 325L1756 327L1756 325L1754 325z"/>
<path style="fill:#9d9d9e; stroke:none;" d="M368 327L369 328L368 327z"/>
<path style="fill:#9fd0fb; stroke:none;" d="M1756 327L1757 328L1756 327M1757 328L1762 332L1757 328z"/>
<path style="fill:#9d9d9e; stroke:none;" d="M366 329L367 330L366 329z"/>
<path style="fill:#9fd0fb; stroke:none;" d="M1762 332L1763 333L1762 332z"/>
<path style="fill:#9d9d9e; stroke:none;" d="M362 333L363 334L362 333z"/>
<path style="fill:#9fd0fb; stroke:none;" d="M1763 333L1764 334L1763 333M1764 334L1765 335L1764 334M1765 335L1766 336L1765 335M1766 336L1767 337L1766 336M1767 337L1768 338L1767 337M1768 338L1769 339L1768 338M1769 339L1770 340L1769 339M1770 340L1771 341L1770 340M1771 341L1772 342L1771 341M1772 342L1773 343L1772 342M1773 343L1774 344L1773 343M1774 344L1775 345L1774 344M1775 345L1776 346L1775 345M1776 346L1777 347L1776 346M1777 347L1778 348L1777 347M1778 348L1779 349L1778 348M1779 349L1780 350L1779 349M1780 350L1781 351L1780 350M1781 351L1782 352L1781 351M1782 352L1783 353L1782 352M1783 353L1784 354L1783 353M1784 354L1785 355L1784 354M1785 355L1786 356L1785 355M1786 356L1791 360L1786 356M1791 360L1792 361L1791 360M1792 361L1793 362L1792 361M1793 362L1794 363L1793 362M1794 363L1795 364L1794 363M1795 364L1796 365L1795 364M1796 365L1797 366L1796 365M1797 366L1798 367L1797 366M1798 367L1799 368L1798 367M1799 368L1800 369L1799 368M1800 369L1801 370L1800 369M1801 370L1802 371L1801 370M1802 371L1803 372L1802 371M1803 372L1804 373L1803 372M1804 373L1805 374L1804 373M1805 374L1806 375L1805 374M1806 375L1807 376L1806 375M1807 376L1808 377L1807 376M1808 377L1809 378L1808 377M1809 378L1817 385L1809 378M1817 385L1818 386L1817 385M1818 386L1819 387L1818 386M1819 387L1820 388L1819 387M1820 388L1821 389L1820 388M1821 389L1822 390L1821 389M817 390L817 391L1201 391L1167 390L1089 390L817 390M1822 390L1823 391L1822 390M816 391L817 392L816 391M1823 391L1824 392L1823 391M815 392L816 393L815 392M1824 392L1825 393L1824 392z"/>
<path style="fill:#9d9d9e; stroke:none;" d="M303 393L304 394L303 393z"/>
<path style="fill:#9fd0fb; stroke:none;" d="M814 393L810 398L814 393M1825 393L1826 394L1825 393M1826 394L1827 395L1826 394M1827 395L1828 396L1827 395M1828 396L1829 397L1828 396z"/>
<path style="fill:#9d9d9e; stroke:none;" d="M299 397L300 398L299 397z"/>
<path style="fill:#9fd0fb; stroke:none;" d="M1829 397L1830 398L1829 397M809 398L810 399L809 398M1830 398L1831 399L1830 398z"/>
<path style="fill:#9d9d9e; stroke:none;" d="M297 399L298 400L297 399z"/>
<path style="fill:#9fd0fb; stroke:none;" d="M808 399L809 400L808 399M1831 399L1832 400L1831 399z"/>
<path style="fill:#9d9d9e; stroke:none;" d="M296 400L297 401L296 400z"/>
<path style="fill:#9fd0fb; stroke:none;" d="M807 400L808 401L807 400M1832 400L1833 401L1832 400z"/>
<path style="fill:#9d9d9e; stroke:none;" d="M295 401L296 402L295 401z"/>
<path style="fill:#9fd0fb; stroke:none;" d="M806 401L807 402L806 401M1833 401L1834 402L1833 401z"/>
<path style="fill:#9d9d9e; stroke:none;" d="M294 402L295 403L294 402z"/>
<path style="fill:#9fd0fb; stroke:none;" d="M805 402L806 403L805 402M1834 402L1835 403L1834 402M804 403L799 409L804 403M1835 403L1837 405L1837 403L1835 403M1837 405L1838 406L1837 405M1838 406L1842 409L1838 406z"/>
<path style="fill:#9d9d9e; stroke:none;" d="M289 407L290 408L289 407z"/>
<path style="fill:#9fd0fb; stroke:none;" d="M1357 407L1358 408L1357 407M1358 408L1359 409L1358 408z"/>
<path style="fill:#9d9d9e; stroke:none;" d="M287 409L288 410L287 409z"/>
<path style="fill:#9fd0fb; stroke:none;" d="M798 409L799 410L798 409M1359 409L1360 410L1359 409M1842 409L1843 410L1842 409M797 410L798 411L797 410M1360 410L1361 411L1360 410M1843 410L1844 411L1843 410z"/>
<path style="fill:#9d9d9e; stroke:none;" d="M285 411L286 412L285 411z"/>
<path style="fill:#9fd0fb; stroke:none;" d="M796 411L797 412L796 411M1361 411L1362 412L1361 411M1844 411L1845 412L1844 411M795 412L789 419C792.158 417.511 795.08 415.717 795 412M1362 412L1363 413L1362 412M1845 412L1846 413L1845 412M1363 413L1364 414L1363 413M1846 413L1847 414L1846 413M1364 414L1365 415L1364 414M1847 414L1848 415L1847 414M1365 415L1366 416L1365 415M1848 415L1849 416L1848 415M1366 416L1367 417L1366 416M1849 416L1850 417L1849 416M1367 417L1368 418L1367 417M1850 417L1851 418L1850 417M1368 418L1369 419L1368 418M1851 418L1852 419L1851 418M788 419L789 420L788 419M1369 419L1370 420L1369 419M1852 419L1853 420L1852 419M787 420L788 421L787 420M1370 420L1371 421L1370 420M1853 420L1854 421L1853 420M786 421L787 422L786 421M1371 421L1372 422L1371 421M1854 421L1855 422L1854 421M785 422L780 428L785 422M1372 422L1373 423L1372 422M1855 422L1856 423L1855 422M1373 423L1374 424L1373 423M1856 423L1857 424L1856 423M1374 424L1375 425L1374 424M1857 424L1858 425L1857 424M1375 425L1376 426L1375 425M1858 425L1859 426L1858 425M1376 426L1377 427L1376 426M1859 426L1860 427L1859 426M1377 427L1378 428L1377 427M1860 427L1861 428L1860 427M779 428L780 429L779 428M1378 428L1379 429L1378 428M1861 428L1862 429L1861 428M778 429L779 430L778 429M1379 429L1380 430L1379 429M1862 429L1863 430L1862 429M777 430L778 431L777 430M1380 430L1381 431L1380 430M1863 430L1864 431L1863 430M776 431L771 437L776 431M1381 431L1382 432L1381 431M1864.67 431.333L1865.33 431.667L1864.67 431.333M1382 432L1383 433L1382 432M1866 432L1867 433L1866 432M1383 433L1384 434L1383 433M1867 433L1868 434L1867 433M1384 434L1385 435L1384 434M1868 434L1869 435L1868 434M1385 435L1386 436L1385 435M1869 435L1870 436L1869 435M1386 436L1387 437L1386 436M1870 436L1871 437L1870 436M770 437L771 438L770 437M1387 437L1388 438L1387 437M1871 437L1872 438L1871 437M769 438L770 439L769 438M1388 438L1389 439L1388 438M1872 438L1873 439L1872 438M768 439L769 440L768 439M1389 439L1390 440L1389 439M1873 439L1874 440L1873 439M767 440L768 441L767 440M1390 440L1391 441L1390 440M1874 440L1875 441L1874 440M766 441L767 442L766 441M1391 441L1392 442L1391 441M1875 441L1876 442L1875 441M765 442L761 447L765 442M1392 442L1393 443L1392 442M1876 442L1877 443L1876 442M1393 443L1394 444L1393 443M1877 443L1878 444L1877 443M1394 444L1395 445L1394 444M1878 444L1879 445L1878 444M1395 445L1396 446L1395 445M1879 445L1880 446L1879 445M1396 446L1397 447L1396 446M1880 446L1881 447L1880 446M760 447L761 448L760 447M1397 447L1398 448L1397 447M1881 447L1882 448L1881 447M759 448L760 449L759 448M1398 448L1399 449L1398 448M1882 448L1883 449L1882 448M758 449L759 450L758 449M1399 449L1400 450L1399 449M1883 449L1884 450L1883 449M757 450L758 451L757 450M1400 450L1401 451L1400 450M1884 450L1885 451L1884 450M756 451L750 458C753.158 456.511 756.08 454.717 756 451M1401 451L1402 452L1401 451M1885 451L1886 452L1885 451M1402 452L1403 453L1402 452M1886 452L1887 453L1886 452M1403 453L1404 454L1403 453M1887 453L1888 454L1887 453M1404 454L1405 455L1404 454M1888 454L1892 457L1888 454M1405 455L1406 456L1405 455M1406 456L1407 457L1406 456M1407 457L1408 458L1407 457M1892 457L1893 458L1892 457M749 458L750 459L749 458M1408 458L1409 459L1408 458M1893 458L1894 459L1893 458M748 459L749 460L748 459M1409 459L1410 460L1409 459M1894 459L1895 460L1894 459M747 460L748 461L747 460M1410 460L1411 461L1410 460M1895 460L1896 461L1895 460M746 461L742 466L746 461M1411 461L1412 462L1411 461M1896 461L1897 462L1896 461M1412 462L1413 463L1412 462M1897 462L1898 463L1897 462M1413 463L1414 464L1413 463M1898 463L1899 464L1898 463M1414 464L1415 465L1414 464M1899 464L1900 465L1899 464M1415 465L1416 466L1415 465M1900 465L1901 466L1900 465M741 466L742 467L741 466M1416 466L1417 467L1416 466M1901 466L1902 467L1901 466M740 467L741 468L740 467M1417 467L1418 468L1417 467M1902 467L1903 468L1902 467M739 468L740 469L739 468M1418 468L1419 469L1418 468M1903 468L1904 469L1903 468M738 469L739 470L738 469M1419 469L1420 470L1419 469M1904 469L1905 470L1904 469M737 470L738 471L737 470M1420 470L1421 471L1420 470M1905 470L1906 471L1905 470z"/>
<path style="fill:#9d9d9e; stroke:none;" d="M226 471L227 472L226 471z"/>
<path style="fill:#9fd0fb; stroke:none;" d="M736 471L737 472L736 471M1421 471L1422 472L1421 471M1906 471L1907 472L1906 471M735 472L731 477L735 472M1422 472L1423 473L1422 472M1907 472L1908 473L1907 472z"/>
<path style="fill:#9d9d9e; stroke:none;" d="M224 473L225 474L224 473z"/>
<path style="fill:#9fd0fb; stroke:none;" d="M1423 473L1424 474L1423 473M1908 473L1909 474L1908 473z"/>
<path style="fill:#9d9d9e; stroke:none;" d="M223 474L224 475L223 474z"/>
<path style="fill:#9fd0fb; stroke:none;" d="M1424 474L1425 475L1424 474M1909 474L1910 475L1909 474z"/>
<path style="fill:#9d9d9e; stroke:none;" d="M222 475L223 476L222 475z"/>
<path style="fill:#9fd0fb; stroke:none;" d="M887 475L887 476L1216 476L1187 475L1120 475L887 475M1425 475L1426 476L1425 475M1910 475L1911 476L1910 475z"/>
<path style="fill:#9d9d9e; stroke:none;" d="M887 476L887 1287L887 1513L887 1576C887 1582.76 884.524 1595.5 887.603 1601.57C889.827 1605.95 900.935 1604 905 1604L959 1604L1152 1604L1200 1604C1203.91 1604 1213.2 1605.68 1215.97 1602.26C1219.79 1597.54 1217 1581.95 1217 1576L1217 1504L1217 1223L1216 1223L1216 1500L1216 1573C1216 1579.84 1218.83 1594.9 1214.97 1600.68C1212.12 1604.96 1201.46 1603 1197 1603L1145 1603L952 1603L905 1603C900.836 1603 891.718 1604.71 889.028 1600.68C885.962 1596.09 888 1585.36 888 1580L888 1525L888 1318L888 743L888 563L888 507C888 496.944 886.662 485.819 889 476L887 476M1215 476L1216 518L1216 599L1216 858L1217 858L1217 571L1217 500C1217 494.167 1219.56 479.981 1215 476z"/>
<path style="fill:#9fd0fb; stroke:none;" d="M1426 476L1427 477L1426 476M1911 476L1912 477L1911 476z"/>
<path style="fill:#9d9d9e; stroke:none;" d="M220 477L221 478L220 477z"/>
<path style="fill:#9fd0fb; stroke:none;" d="M730 477L731 478L730 477M886 477L886 1602L887 1602L887 803L887 573L887 506L886 477M1427 477L1428 478L1427 477M1912 477L1913 478L1912 477z"/>
<path style="fill:#9d9d9e; stroke:none;" d="M219 478L220 479L219 478z"/>
<path style="fill:#9fd0fb; stroke:none;" d="M729 478L730 479L729 478M1428 478L1429 479L1428 478M1913 478L1914 479L1913 478z"/>
<path style="fill:#9d9d9e; stroke:none;" d="M218 479L219 480L218 479z"/>
<path style="fill:#9fd0fb; stroke:none;" d="M728 479L729 480L728 479M1429 479L1430 480L1429 479M1914 479L1915 480L1914 479z"/>
<path style="fill:#9d9d9e; stroke:none;" d="M217 480L218 481L217 480z"/>
<path style="fill:#9fd0fb; stroke:none;" d="M727 480L728 481L727 480M1430 480L1431 481L1430 480M1915 480L1921 485L1915 480z"/>
<path style="fill:#9d9d9e; stroke:none;" d="M216 481L217 482L216 481z"/>
<path style="fill:#9fd0fb; stroke:none;" d="M726 481L722 486L726 481M1431 481L1432 482L1431 481M1432 482L1433 483L1432 482M1433 483L1434 484L1433 483M1434 484L1435 485L1434 484M1435 485L1436 486L1435 485M1921 485L1922 486L1921 485z"/>
<path style="fill:#9d9d9e; stroke:none;" d="M211 486L212 487L211 486z"/>
<path style="fill:#9fd0fb; stroke:none;" d="M721 486L722 487L721 486M1436 486L1437 487L1436 486M1922 486L1923 487L1922 486z"/>
<path style="fill:#9d9d9e; stroke:none;" d="M210 487L211 488L210 487z"/>
<path style="fill:#9fd0fb; stroke:none;" d="M720 487L721 488L720 487M1437 487L1438 488L1437 487M1923 487L1924 488L1923 487M719 488L720 489L719 488M1438 488L1439 489L1438 488M1924 488L1925 489L1924 488M718 489L719 490L718 489M1439 489L1440 490L1439 489M1925 489L1926 490L1925 489M717 490L718 491L717 490M1440 490L1441 491L1440 490M1926 490L1927 491L1926 490M716 491L713 495L716 491M1441 491L1442 492L1441 491M1927 491L1928 492L1927 491M1442 492L1443 493L1442 492M1928 492L1929 493L1928 492M1443 493L1444 494L1443 493M1929 493L1930 494L1929 493M1444 494L1445 495L1444 494M1930 494L1931 495L1930 494M712 495L713 496L712 495M1445 495L1446 496L1445 495M1931 495L1932 496L1931 495M711 496L712 497L711 496M1446 496L1447 497L1446 496M1932 496L1933 497L1932 496M710 497L711 498L710 497M1447 497L1448 498L1447 497M1933 497L1934 498L1933 497M709 498L710 499L709 498M1448 498L1449 499L1448 498M1934 498L1935 499L1934 498M708 499L709 500L708 499M1449 499L1450 500L1449 499M1935 499L1936 500L1935 499M707 500L703 505L707 500M1450 500L1451 501L1450 500M1936 500L1937 501L1936 500M1451 501L1452 502L1451 501M1937 501L1938 502L1937 501M1452 502L1453 503L1452 502M1938 502L1939 503L1938 502M1453 503L1454 504L1453 503M1939 503L1940 504L1939 503M1454 504L1455 505L1454 504M1940 504L1941 505L1940 504M702 505L703 506L702 505M1455 505L1456 506L1455 505M1941 505L1943 507L1943 505L1941 505M701 506L702 507L701 506M1456 506L1457 507L1456 506M700 507L701 508L700 507M1457 507L1458 508L1457 507M1943 507L1947 510L1943 507M699 508L700 509L699 508M1458 508L1459 509L1458 508M698 509L699 510L698 509M1459 509L1460 510L1459 509M697 510L698 511L697 510M1460 510L1461 511L1460 510M1947 510L1947 512L1949 512L1947 510M696 511L692 516L696 511M1461 511L1462 512L1461 511M1462 512L1463 513L1462 512M1949 512L1950 513L1949 512M1463 513L1464 514L1463 513M1950 513L1951 514L1950 513M1464 514L1465 515L1464 514M1951 514L1952 515L1951 514M1465 515L1466 516L1465 515M1952 515L1953 516L1952 515M691 516L692 517L691 516M1466 516L1467 517L1466 516M1953 516L1954 517L1953 516M690 517L691 518L690 517M1467 517L1468 518L1467 517M1954 517L1955 518L1954 517M689 518L690 519L689 518M1468 518L1469 519L1468 518M1955 518L1956 519L1955 518M688 519L689 520L688 519M1469 519L1470 520L1469 519M1956 519L1957 520L1956 519M687 520L688 521L687 520M1470 520L1471 521L1470 520M1957 520L1958 521L1957 520M686 521L683 525L686 521M1471 521L1472 522L1471 521M1958 521L1959 522L1958 521M1472 522L1473 523L1472 522M1959 522L1960 523L1959 522M1473 523L1474 524L1473 523M1960 523L1961 524L1960 523M1474 524L1475 525L1474 524M1961 524L1962 525L1961 524M682 525L683 526L682 525M1475 525L1476 526L1475 525M1962 525L1963 526L1962 525M681 526L682 527L681 526M1476 526L1477 527L1476 526M1963 526L1964 527L1963 526M680 527L681 528L680 527M1477 527L1478 528L1477 527M1964 527L1965 528L1964 527M679 528L680 529L679 528M1478 528L1479 529L1478 528M1965 528L1966 529L1965 528M678 529L679 530L678 529M1479 529L1480 530L1479 529M1966 529L1967 530L1966 529M677 530L673 535L677 530M1480 530L1481 531L1480 530M1967 530L1969 532L1969 530L1967 530M1481 531L1482 532L1481 531M1482 532L1483 533L1482 532M1969 532L1974 536L1969 532M1483 533L1484 534L1483 533M1484 534L1485 535L1484 534M672 535L673 536L672 535M1485 535L1486 536L1485 535M671 536L672 537L671 536M1486 536L1487 537L1486 536M1974.33 536.667L1974.67 537.333L1974.33 536.667M670 537L671 538L670 537M1487 537L1488 538L1487 537M669 538L670 539L669 538M1488 538L1489 539L1488 538M1976 538L1977 539L1976 538M668 539L662 546C665.158 544.511 668.08 542.717 668 539M1489 539L1490 540L1489 539M1977 539L1978 540L1977 539M1490 540L1491 541L1490 540M1978 540L1979 541L1978 540M1491 541L1492 542L1491 541M1979 541L1980 542L1979 541M1492 542L1493 543L1492 542M1980 542L1981 543L1980 542M1493 543L1494 544L1493 543M1981 543L1982 544L1981 543M1494 544L1495 545L1494 544M1982 544L1983 545L1982 544M1495 545L1496 546L1495 545M1983 545L1984 546L1983 545M661 546L662 547L661 546M1496 546L1497 547L1496 546M1984 546L1985 547L1984 546M660 547L661 548L660 547M1497 547L1498 548L1497 547M1985 547L1986 548L1985 547M659 548L660 549L659 548M1498 548L1499 549L1498 548M1986 548L1987 549L1986 548M658 549L653 555L658 549M1499 549L1500 550L1499 549M1987 549L1988 550L1987 549M1500 550L1501 551L1500 550M1988 550L1989 551L1988 550M1501 551L1502 552L1501 551M1989 551L1990 552L1989 551M1502 552L1503 553L1502 552M1990 552L1991 553L1990 552M1503 553L1504 554L1503 553M1991 553L1992 554L1991 553M1504 554L1505 555L1504 554M1992 554L1993 555L1992 554M652 555L653 556L652 555M1505 555L1506 556L1505 555M1993 555L1994 556L1993 555M651 556L652 557L651 556M1506 556L1507 557L1506 556M1994 556L1995 557L1994 556M650 557L651 558L650 557M1507 557L1508 558L1507 557M1995 557L1996 558L1995 557M649 558L643 565C646.158 563.511 649.08 561.717 649 558M1508 558L1509 559L1508 558M1996 558L1997 559L1996 558M1509 559L1510 560L1509 559M1997 559L1998 560L1997 559M1510 560L1511 561L1510 560M1998.67 560.333L1999.33 560.667L1998.67 560.333z"/>
<path style="fill:#9d9d9e; stroke:none;" d="M137 561L138 562L137 561z"/>
<path style="fill:#9fd0fb; stroke:none;" d="M1511 561L1512 562L1511 561M2000 561L2000 563L2002 563L2000 561z"/>
<path style="fill:#9d9d9e; stroke:none;" d="M136 562L137 563L136 562z"/>
<path style="fill:#9fd0fb; stroke:none;" d="M1512 562L1513 563L1512 562z"/>
<path style="fill:#9d9d9e; stroke:none;" d="M135 563L136 564L135 563z"/>
<path style="fill:#9fd0fb; stroke:none;" d="M1513 563L1514 564L1513 563M2002 563L2003 564L2002 563z"/>
<path style="fill:#9d9d9e; stroke:none;" d="M134 564L135 565L134 564z"/>
<path style="fill:#9fd0fb; stroke:none;" d="M1514 564L1515 565L1514 564M2003 564L2004 565L2003 564M642 565L643 566L642 565M1515 565L1516 566L1515 565M2004 565L2005 566L2004 565z"/>
<path style="fill:#9d9d9e; stroke:none;" d="M132 566L133 567L132 566z"/>
<path style="fill:#9fd0fb; stroke:none;" d="M641 566L642 567L641 566M1516 566L1517 567L1516 566M2005 566L2006 567L2005 566z"/>
<path style="fill:#9d9d9e; stroke:none;" d="M131 567L132 568L131 567z"/>
<path style="fill:#9fd0fb; stroke:none;" d="M640 567L641 568L640 567M1517 567L1518 568L1517 567M2006 567L2007 568L2006 567z"/>
<path style="fill:#9d9d9e; stroke:none;" d="M130 568L131 569L130 568z"/>
<path style="fill:#9fd0fb; stroke:none;" d="M639 568L633 576L639 568M1518 568L1519 569L1518 568M2007 568L2008 569L2007 568M1519 569L1520 570L1519 569M2008 569L2009 570L2008 569M1520 570L1521 571L1520 570M2009 570L2010 571L2009 570M1521 571L1522 572L1521 571M2010 571L2011 572L2010 571M1522 572L1523 573L1522 572M2011 572L2012 573L2011 572M1523 573L1524 574L1523 573M2012 573L2013 574L2012 573M1524 574L1525 575L1524 574M2013 574L2014 575L2013 574z"/>
<path style="fill:#9d9d9e; stroke:none;" d="M632 575L633 576L632 575z"/>
<path style="fill:#9fd0fb; stroke:none;" d="M1525 575L1526 576L1525 575M2014 575L2015 576L2014 575z"/>
<path style="fill:#9d9d9e; stroke:none;" d="M122 576L123 577L122 576z"/>
<path style="fill:#9fd0fb; stroke:none;" d="M631 576L632 577L631 576M1526 576L1527 577L1526 576M2015 576L2016 577L2015 576z"/>
<path style="fill:#9d9d9e; stroke:none;" d="M630 577L631 578L630 577z"/>
<path style="fill:#9fd0fb; stroke:none;" d="M1527 577L1528 578L1527 577M2016 577L2017 578L2016 577M623 585L631 578L623 585M1528 578L1529 579L1528 578M2017 578L2018 579L2017 578M1529 579L1530 580L1529 579M2018 579L2019 580L2018 579M1530 580L1531 581L1530 580M2019 580L2020 581L2019 580M1531 581L1532 582L1531 581M2020 581L2021 582L2020 581M1532 582L1533 583L1532 582M2021 582L2022 583L2021 582M1533 583L1534 584L1533 583M2022 583L2023 584L2022 583M1534 584L1535 585L1534 584M2023 584L2024 585L2023 584z"/>
<path style="fill:#9d9d9e; stroke:none;" d="M622 585L623 586L622 585z"/>
<path style="fill:#9fd0fb; stroke:none;" d="M1535 585L1536 586L1535 585M2024 585L2026 587L2026 585L2024 585z"/>
<path style="fill:#9d9d9e; stroke:none;" d="M621 586L622 587L621 586z"/>
<path style="fill:#9fd0fb; stroke:none;" d="M1536 586L1537 587L1536 586M620 587L621 588L620 587M1537 587L1538 588L1537 587M2026 587L2028 589L2028 587L2026 587M619 588L614 594L619 588M1538 588L1539 589L1538 588M1539 589L1540 590L1539 589M2028.67 589.333L2029.33 589.667L2028.67 589.333M1540 590L1541 591L1540 590M2030 590L2031 591L2030 590M1541 591L1542 592L1541 591M2031 591L2032 592L2031 591M1542 592L1543 593L1542 592M2032 592L2033 593L2032 592M1543 593L1544 594L1543 593M2033 593L2034 594L2033 593M613 594L614 595L613 594M1544 594L1545 595L1544 594M2034 594L2035 595L2034 594z"/>
<path style="fill:#9d9d9e; stroke:none;" d="M612 595L613 596L612 595z"/>
<path style="fill:#9fd0fb; stroke:none;" d="M1545 595L1546 596L1545 595M2035 595L2036 596L2035 595z"/>
<path style="fill:#9d9d9e; stroke:none;" d="M611 596L612 597L611 596z"/>
<path style="fill:#9fd0fb; stroke:none;" d="M1546 596L1547 597L1546 596M2036 596L2037 597L2036 596M610 597L611 598L610 597M1547 597L1548 598L1547 597M2037 597L2038 598L2037 597M609 598L604 604L609 598M1548 598L1549 599L1548 598M2038 598L2039 599L2038 598M1549 599L1550 600L1549 599M2039 599L2040 600L2039 599M1550 600L1551 601L1550 600M2040 600L2041 601L2040 600M1551 601L1552 602L1551 601M2041 601L2042 602L2041 601M1552 602L1553 603L1552 602M2042 602L2043 603L2042 602M1553 603L1554 604L1553 603M2043 603L2044 604L2043 603M603 604L604 605L603 604M1554 604L1555 605L1554 604M2044 604L2045 605L2044 604z"/>
<path style="fill:#9d9d9e; stroke:none;" d="M602 605L603 606L602 605z"/>
<path style="fill:#9fd0fb; stroke:none;" d="M1555 605L1556 606L1555 605M2045 605L2046 606L2045 605z"/>
<path style="fill:#9d9d9e; stroke:none;" d="M601 606L602 607L601 606z"/>
<path style="fill:#9fd0fb; stroke:none;" d="M1556 606L1557 607L1556 606M2046 606L2047 607L2046 606M600 607L594 614C597.158 612.511 600.08 610.717 600 607M1557 607L1558 608L1557 607M2047 607L2048 608L2047 607M1558 608L1559 609L1558 608M1559 609L1560 610L1559 609M1560 610L1561 611L1560 610M1561 611L1562 612L1561 611M1562 612L1563 613L1562 612M1563 613L1564 614L1563 613M593 614L594 615L593 614M1564 614L1565 615L1564 614M592 615L593 616L592 615M1565 615L1566 616L1565 615M591 616L592 617L591 616M1566 616L1567 617L1566 616M590 617L584 624C587.158 622.511 590.08 620.717 590 617M1567 617L1568 618L1567 617M1568 618L1569 619L1568 618M1569 619L1570 620L1569 619M1570 620L1571 621L1570 620M1571 621L1572 622L1571 621M1572 622L1573 623L1572 622M1573 623L1574 624L1573 623M583 624L584 625L583 624M1574 624L1575 625L1574 624M582 625L583 626L582 625M1575 625L1576 626L1575 625M581 626L582 627L581 626M1576 626L1577 627L1576 626M580 627L574 634C577.158 632.511 580.08 630.717 580 627M1577 627L1578 628L1577 627M1578 628L1579 629L1578 628M1579 629L1580 630L1579 629M1580 630L1581 631L1580 630z"/>
<path style="fill:#9d9d9e; stroke:none;" d="M68 631L69 632L68 631M1581 631L1581 632L1587 636L1581 631z"/>
<path style="fill:#9fd0fb; stroke:none;" d="M1582 632L1583 633L1582 632M573 634L574 635L573 634M1584 634L1585 635L1584 634M572 635L573 636L572 635M1585 635L1586 636L1585 635z"/>
<path style="fill:#9d9d9e; stroke:none;" d="M63 636L64 637L63 636z"/>
<path style="fill:#9fd0fb; stroke:none;" d="M571 636L572 637L571 636M1586 636L1587 637L1586 636M570 637L565 643L570 637M1587 637L1588 638L1587 637z"/>
<path style="fill:#9d9d9e; stroke:none;" d="M61 638L62 639L61 638z"/>
<path style="fill:#9fd0fb; stroke:none;" d="M1588 638L1589 639L1588 638z"/>
<path style="fill:#9d9d9e; stroke:none;" d="M60 639L61 640L60 639z"/>
<path style="fill:#9fd0fb; stroke:none;" d="M1589 639L1590 640L1589 639z"/>
<path style="fill:#9d9d9e; stroke:none;" d="M59 640L60 641L59 640z"/>
<path style="fill:#9fd0fb; stroke:none;" d="M1590 640L1592 642L1590 640z"/>
<path style="fill:#9d9d9e; stroke:none;" d="M1591 640L1592 641L1591 640M1592 641L1597 646L1592 641z"/>
<path style="fill:#9fd0fb; stroke:none;" d="M564 643L565 644L564 643M1593 643L1594 644L1593 643M563 644L564 645L563 644M562 645L563 646L562 645M1595 645L1596 646L1595 645M561 646L554 654C557.435 652.393 561.086 650.074 561 646M1596 646L1597 647L1596 646M1597 647L1598 648L1597 647M1598 648L1599 649L1598 648M1599 649L1600 650L1599 649M1600 650L1602 652L1600 650z"/>
<path style="fill:#9d9d9e; stroke:none;" d="M1601 650L1602 651L1601 650M1602 651L1606 655L1602 651z"/>
<path style="fill:#9fd0fb; stroke:none;" d="M553 654L554 655L553 654M1604 654L1605 655L1604 654M552 655L553 656L552 655M1605 655L1606 656L1605 655M551 656L545 663C548.158 661.511 551.08 659.717 551 656M1606 656L1608 658L1606 656z"/>
<path style="fill:#9d9d9e; stroke:none;" d="M1607 656L1608 657L1607 656z"/>
<path style="fill:#9fd0fb; stroke:none;" d="M1608 658L1609 659L1608 658M1609 659L1610 660L1609 659M1610 660L1611 661L1610 660z"/>
<path style="fill:#9d9d9e; stroke:none;" d="M1611 660L1614 665L1615 665L1611 660z"/>
<path style="fill:#9fd0fb; stroke:none;" d="M1612 662L1613 663L1612 662M544 663L545 664L544 663M543 664L544 665L543 664M542 665L543 666L542 665M1615 665L1616 666L1615 665M541 666L535 673C538.158 671.511 541.08 669.717 541 666M1616 666L1617 667L1616 666M1617 667L1619 669L1617 667z"/>
<path style="fill:#9d9d9e; stroke:none;" d="M1618 667L1619 668L1618 667z"/>
<path style="fill:#9fd0fb; stroke:none;" d="M1619 669L1621 671L1619 669z"/>
<path style="fill:#9d9d9e; stroke:none;" d="M1620 669L1621 670L1620 669M1621 670L1624 675L1625 675L1621 670z"/>
<path style="fill:#9fd0fb; stroke:none;" d="M534 673L535 674L534 673M1623 673L1624 674L1623 673M533 674L534 675L533 674M532 675L533 676L532 675M1625 675L1626 676L1625 675M531 676L526 682L531 676M1626 676L1627 677L1626 676M1627 677L1628 678L1627 677M1628 678L1632 682L1628 678z"/>
<path style="fill:#9d9d9e; stroke:none;" d="M1629 678L1630 679L1629 678M1630 679L1631 680L1630 679M1631 680L1632 681L1631 680M1632 681L1636 685L1632 681z"/>
<path style="fill:#9fd0fb; stroke:none;" d="M525 682L526 683L525 682M524 683L525 684L524 683M523 684L524 685L523 684M1634 684L1635 685L1634 684M522 685L516 692C519.158 690.511 522.08 688.717 522 685M1635 685L1636 686L1635 685M1636 686L1637 687L1636 686M1637 687L1638 688L1637 687M1638 688L1639 689L1638 688M1639 689L1641 691L1639 689z"/>
<path style="fill:#9d9d9e; stroke:none;" d="M1640 689L1641 690L1640 689M1641 690L1645 694L1641 690z"/>
<path style="fill:#9fd0fb; stroke:none;" d="M515 692L516 693L515 692M1642 692L1643 693L1642 692M514 693L515 694L514 693M513 694L514 695L513 694M1644 694L1645 695L1644 694M512 695L506 702C509.158 700.511 512.08 698.717 512 695M1645 695L1646 696L1645 695M1646 696L1647 697L1646 696M1647 697L1648 698L1647 697M1648 698L1649 699L1648 698M1649 699L1652 702L1649 699z"/>
<path style="fill:#9d9d9e; stroke:none;" d="M1650 699L1651 700L1650 699M1651 700L1652 701L1651 700M1652 701C1656.13 708.209 1664.13 714.13 1670 720L1710 760C1716.52 766.522 1725.39 773.126 1730.26 781C1733.68 786.544 1732 795.726 1732 802C1732 819.697 1735.1 840.771 1731 858L1732 858C1736.84 841.628 1733 819.094 1733 802C1733 795.797 1734.66 786.677 1731.82 781C1726.95 771.258 1714.66 762.657 1707 755C1689.46 737.464 1672.26 715.272 1652 701z"/>
<path style="fill:#9fd0fb; stroke:none;" d="M505 702L506 703L505 702M504 703L505 704L504 703M1653 703L1654 704L1653 703M503 704L504 705L503 704M1654 704L1655 705L1654 704M502 705L496 712C499.158 710.511 502.08 708.717 502 705M1655 705L1656 706L1655 705M1656 706L1657 707L1656 706M1657 707L1658 708L1657 707M1658 708L1659 709L1658 708M1659 709L1660 710L1659 709M1660 710L1661 711L1660 710M1661 711L1662 712L1661 711M495 712L496 713L495 712M1662 712L1663 713L1662 712M494 713L495 714L494 713M1663 713L1664 714L1663 713M493 714L494 715L493 714M1664 714L1665 715L1664 714M492 715L486 722C489.158 720.511 492.08 718.717 492 715M1665 715L1666 716L1665 715M1666 716L1667 717L1666 716M1667 717L1668 718L1667 717M1668 718L1669 719L1668 718M1669 719L1670 720L1669 719M1670 720L1671 721L1670 720M1671 721L1672 722L1671 721M485 722L486 723L485 722M1672 722L1673 723L1672 722M484 723L485 724L484 723M1673 723L1674 724L1673 723M483 724L484 725L483 724M1674 724L1675 725L1674 724M482 725L477 731L482 725M1675 725L1676 726L1675 725M1676 726L1677 727L1676 726M1677 727L1678 728L1677 727M1678 728L1679 729L1678 728M1679 729L1680 730L1679 729M1680 730L1681 731L1680 730M476 731L477 732L476 731M1681 731L1682 732L1681 731M475 732L476 733L475 732M1682 732L1683 733L1682 732M474 733L475 734L474 733M1683 733L1684 734L1683 733M473 734L467 742L473 734M1684 734L1685 735L1684 734M1685 735L1686 736L1685 735M1686 736L1687 737L1686 736M1687 737L1688 738L1687 737M1688 738L1689 739L1688 738M1689 739L1690 740L1689 739M1690 740L1691 741L1690 740z"/>
<path style="fill:#9d9d9e; stroke:none;" d="M466 741L467 742L466 741z"/>
<path style="fill:#9fd0fb; stroke:none;" d="M1691 741L1692 742L1691 741z"/>
<path style="fill:#9d9d9e; stroke:none;" d="M465 742L466 743L465 742z"/>
<path style="fill:#9fd0fb; stroke:none;" d="M1692 742L1693 743L1692 742M464 743L465 744L464 743M1693 743L1694 744L1693 743M463 744L457 752L463 744M1694 744L1695 745L1694 744M1695 745L1696 746L1695 745M1696 746L1697 747L1696 746M1697 747L1698 748L1697 747M1698 748L1699 749L1698 748M1699 749L1700 750L1699 749M1700 750L1701 751L1700 750z"/>
<path style="fill:#9d9d9e; stroke:none;" d="M456 751L457 752L456 751z"/>
<path style="fill:#9fd0fb; stroke:none;" d="M1701 751L1702 752L1701 751z"/>
<path style="fill:#9d9d9e; stroke:none;" d="M455 752L456 753L455 752z"/>
<path style="fill:#9fd0fb; stroke:none;" d="M1702 752L1703 753L1702 752M454 753L447 761C450.435 759.393 454.086 757.074 454 753M1703 753L1704 754L1703 753M1704 754L1705 755L1704 754M1705 755L1706 756L1705 755M1706 756L1707 757L1706 756M1707 757L1708 758L1707 757M1708 758L1709 759L1708 758M1709 759L1710 760L1709 759M1710 760L1711 761L1710 760M446 761L447 762L446 761M1711 761L1712 762L1711 761M445 762L446 763L445 762M1712 762L1713 763L1712 762M444 763L445 764L444 763M1713 763L1714 764L1713 763M443 764L438 770L443 764M1714 764L1715 765L1714 764M1715 765L1716 766L1715 765M1716 766L1717 767L1716 766M1717 767L1718 768L1717 767M1718 768L1719 769L1718 768M1719 769L1720 770L1719 769M437 770L438 771L437 770M1720 770L1721 771L1720 770M436 771L437 772L436 771M1721 771L1722 772L1721 771M435 772L436 773L435 772M1722 772L1723 773L1722 772M434 773L428 780C431.158 778.511 434.08 776.717 434 773M1723 773L1724 774L1723 773M1724 774L1725 775L1724 774M1725 775L1726 776L1725 775M1726 776L1727 777L1726 776M1727 777L1728 778L1727 777M1728 778L1729 779L1728 778M1729 779L1730 780L1729 779M427 780L428 781L427 780M1730 780L1731 781L1730 780M1731 782L1731 857L1732 857L1732 805L1731 782M1217 857L1217 858L1731 858C1719.31 853.093 1698.73 857 1686 857L1581 857L1217 857z"/>
<path style="fill:#9d9d9e; stroke:none;" d="M1218 1222L1218 1223L1731 1223C1719.31 1218.09 1698.73 1222 1686 1222L1581 1222L1218 1222z"/>
<path style="fill:#9fd0fb; stroke:none;" d="M1217 1223L1218 1224L1217 1223z"/>
<path style="fill:#9d9d9e; stroke:none;" d="M1731 1223C1735.24 1240.82 1732 1262.69 1732 1281C1732 1287.33 1733.85 1297.24 1730.97 1303C1725.78 1313.39 1712.19 1322.81 1704 1331L1643 1392L1444 1591L1385 1650C1376.81 1658.19 1363.22 1667.61 1358.03 1678C1354.93 1684.2 1357 1695.18 1357 1702L1357 1759L1357 1965L1357 2029C1357 2034.47 1354.54 2047.99 1358.03 2052.4C1361.08 2056.25 1374.47 2054 1379 2054L1443 2054L1443 2053L1358 2053L1358 1785L1358 1710C1358 1701.46 1355.17 1686.71 1359.03 1679C1364.58 1667.89 1379.24 1657.76 1388 1649L1453 1584L1669 1368L1714 1323C1719.58 1317.42 1729.62 1310.54 1732.4 1303C1736.84 1290.94 1733 1270.86 1733 1258C1733 1249 1736.5 1230.26 1731 1223z"/>
<path style="fill:#9fd0fb; stroke:none;" d="M1731 1224L1731 1304L1732 1304L1732 1249L1731 1224M1730 1304L1731 1305L1730 1304M1729 1305L1730 1306L1729 1305M1728 1306L1729 1307L1728 1306M1727 1307L1728 1308L1727 1307M1726 1308L1727 1309L1726 1308M1725 1309L1726 1310L1725 1309M1724 1310L1725 1311L1724 1310M1723 1311L1724 1312L1723 1311M1722 1312L1723 1313L1722 1312M1721 1313L1722 1314L1721 1313M1720 1314L1721 1315L1720 1314M1719 1315L1720 1316L1719 1315M1718 1316L1719 1317L1718 1316M1717 1317L1718 1318L1717 1317M1716 1318L1717 1319L1716 1318M1715 1319L1716 1320L1715 1319M1714 1320L1715 1321L1714 1320M1713 1321L1714 1322L1713 1321M1712 1322L1713 1323L1712 1322M1711 1323L1712 1324L1711 1323M1710 1324L1711 1325L1710 1324M1709 1325L1710 1326L1709 1325M1708 1326L1709 1327L1708 1326M1707 1327L1708 1328L1707 1327M1706 1328L1707 1329L1706 1328M1705 1329L1706 1330L1705 1329M1704 1330L1705 1331L1704 1330M1703 1331L1704 1332L1703 1331M1702 1332L1703 1333L1702 1332M1701 1333L1702 1334L1701 1333M1700 1334L1701 1335L1700 1334M1699 1335L1700 1336L1699 1335M1698 1336L1699 1337L1698 1336M1697 1337L1698 1338L1697 1337M1696 1338L1697 1339L1696 1338M1695 1339L1696 1340L1695 1339M1694 1340L1695 1341L1694 1340M1693 1341L1694 1342L1693 1341M1692 1342L1693 1343L1692 1342M1691 1343L1692 1344L1691 1343M1690 1344L1691 1345L1690 1344M1689 1345L1690 1346L1689 1345M1688 1346L1689 1347L1688 1346M1687 1347L1688 1348L1687 1347M1686 1348L1687 1349L1686 1348M1685 1349L1686 1350L1685 1349M1684 1350L1685 1351L1684 1350M1683 1351L1684 1352L1683 1351M1682 1352L1683 1353L1682 1352M1681 1353L1682 1354L1681 1353M1680 1354L1681 1355L1680 1354M1679 1355L1680 1356L1679 1355M1678 1356L1679 1357L1678 1356M1677 1357L1678 1358L1677 1357M1676 1358L1677 1359L1676 1358M1675 1359L1676 1360L1675 1359M1674 1360L1675 1361L1674 1360M1673 1361L1674 1362L1673 1361M1672 1362L1673 1363L1672 1362M1671 1363L1672 1364L1671 1363M1670 1364L1671 1365L1670 1364M1669 1365L1670 1366L1669 1365M1668 1366L1669 1367L1668 1366M1667 1367L1668 1368L1667 1367M1666 1368L1667 1369L1666 1368M1665 1369L1666 1370L1665 1369M1664 1370L1665 1371L1664 1370M1663 1371L1664 1372L1663 1371M1662 1372L1663 1373L1662 1372M1661 1373L1662 1374L1661 1373M1660 1374L1661 1375L1660 1374M1659 1375L1660 1376L1659 1375M1658 1376L1659 1377L1658 1376M1657 1377L1658 1378L1657 1377M1656 1378L1657 1379L1656 1378M1655 1379L1656 1380L1655 1379M1654 1380L1655 1381L1654 1380M1653 1381L1654 1382L1653 1381M1652 1382L1653 1383L1652 1382M1651 1383L1652 1384L1651 1383M1650 1384L1651 1385L1650 1384M1649 1385L1650 1386L1649 1385M1648 1386L1649 1387L1648 1386M1647 1387L1648 1388L1647 1387M1646 1388L1647 1389L1646 1388M1645 1389L1646 1390L1645 1389M1644 1390L1645 1391L1644 1390M1643 1391L1644 1392L1643 1391M1642 1392L1643 1393L1642 1392M1641 1393L1642 1394L1641 1393M1640 1394L1641 1395L1640 1394M1639 1395L1640 1396L1639 1395M1638 1396L1639 1397L1638 1396M1637 1397L1638 1398L1637 1397M1636 1398L1637 1399L1636 1398M1635 1399L1636 1400L1635 1399M1634 1400L1635 1401L1634 1400M1633 1401L1634 1402L1633 1401M1632 1402L1633 1403L1632 1402M1631 1403L1632 1404L1631 1403M1630 1404L1631 1405L1630 1404M1629 1405L1630 1406L1629 1405M1628 1406L1629 1407L1628 1406M1627 1407L1628 1408L1627 1407M1626 1408L1627 1409L1626 1408M1625 1409L1626 1410L1625 1409M1624 1410L1625 1411L1624 1410M1623 1411L1624 1412L1623 1411M1622 1412L1623 1413L1622 1412M1621 1413L1622 1414L1621 1413M1620 1414L1621 1415L1620 1414M1619 1415L1620 1416L1619 1415M1618 1416L1619 1417L1618 1416M1617 1417L1618 1418L1617 1417M1616 1418L1617 1419L1616 1418M1615 1419L1616 1420L1615 1419M1614 1420L1615 1421L1614 1420M1613 1421L1614 1422L1613 1421M1612 1422L1613 1423L1612 1422M1611 1423L1612 1424L1611 1423M1610 1424L1611 1425L1610 1424M1609 1425L1610 1426L1609 1425M1608 1426L1609 1427L1608 1426M1607 1427L1608 1428L1607 1427M1606 1428L1607 1429L1606 1428M1605 1429L1606 1430L1605 1429M1604 1430L1605 1431L1604 1430M1603 1431L1604 1432L1603 1431M1602 1432L1603 1433L1602 1432M1601 1433L1602 1434L1601 1433M1600 1434L1601 1435L1600 1434M1599 1435L1600 1436L1599 1435M1598 1436L1599 1437L1598 1436M1597 1437L1598 1438L1597 1437M1596 1438L1597 1439L1596 1438M1595 1439L1596 1440L1595 1439M1594 1440L1595 1441L1594 1440M1593 1441L1594 1442L1593 1441M1592 1442L1593 1443L1592 1442M1591 1443L1592 1444L1591 1443M1590 1444L1591 1445L1590 1444M1589 1445L1590 1446L1589 1445M1588 1446L1589 1447L1588 1446M1587 1447L1588 1448L1587 1447M1586 1448L1587 1449L1586 1448M1585 1449L1586 1450L1585 1449M1584 1450L1585 1451L1584 1450M1583 1451L1584 1452L1583 1451M1582 1452L1583 1453L1582 1452M1581 1453L1582 1454L1581 1453M1580 1454L1581 1455L1580 1454z"/>
<path style="fill:#9d9d9e; stroke:none;" d="M67 1455L68 1456L67 1455z"/>
<path style="fill:#9fd0fb; stroke:none;" d="M1579 1455L1580 1456L1579 1455M1578 1456L1579 1457L1578 1456M1577 1457L1578 1458L1577 1457M1576 1458L1577 1459L1576 1458M1575 1459L1576 1460L1575 1459M1574 1460L1575 1461L1574 1460z"/>
<path style="fill:#9d9d9e; stroke:none;" d="M73 1461L74 1462L73 1461z"/>
<path style="fill:#9fd0fb; stroke:none;" d="M1573 1461L1574 1462L1573 1461z"/>
<path style="fill:#9d9d9e; stroke:none;" d="M74 1462L75 1463L74 1462z"/>
<path style="fill:#9fd0fb; stroke:none;" d="M1572 1462L1573 1463L1572 1462M1571 1463L1572 1464L1571 1463z"/>
<path style="fill:#9d9d9e; stroke:none;" d="M76 1464L77 1465L76 1464z"/>
<path style="fill:#9fd0fb; stroke:none;" d="M1570 1464L1571 1465L1570 1464z"/>
<path style="fill:#9d9d9e; stroke:none;" d="M77 1465L78 1466L77 1465z"/>
<path style="fill:#9fd0fb; stroke:none;" d="M1569 1465L1570 1466L1569 1465z"/>
<path style="fill:#9d9d9e; stroke:none;" d="M78 1466L79 1467L78 1466z"/>
<path style="fill:#9fd0fb; stroke:none;" d="M1568 1466L1569 1467L1568 1466z"/>
<path style="fill:#9d9d9e; stroke:none;" d="M79 1467L80 1468L79 1467z"/>
<path style="fill:#9fd0fb; stroke:none;" d="M1567 1467L1568 1468L1567 1467z"/>
<path style="fill:#9d9d9e; stroke:none;" d="M80 1468L81 1469L80 1468z"/>
<path style="fill:#9fd0fb; stroke:none;" d="M1566 1468L1567 1469L1566 1468M1565 1469L1566 1470L1565 1469M1564 1470L1565 1471L1564 1470z"/>
<path style="fill:#9d9d9e; stroke:none;" d="M83 1471L84 1472L83 1471z"/>
<path style="fill:#9fd0fb; stroke:none;" d="M1563 1471L1564 1472L1563 1471M1562 1472L1563 1473L1562 1472M1561 1473L1562 1474L1561 1473M1560 1474L1561 1475L1560 1474M2047 1474L2048 1475L2047 1474M1559 1475L1560 1476L1559 1475M2046 1475L2047 1476L2046 1475M1558 1476L1559 1477L1558 1476M2045 1476L2046 1477L2045 1476M1557 1477L1558 1478L1557 1477M2044 1477L2045 1478L2044 1477M1556 1478L1557 1479L1556 1478M2043 1478L2044 1479L2043 1478M1555 1479L1556 1480L1555 1479M2042 1479L2043 1480L2042 1479M1554 1480L1555 1481L1554 1480M2041 1480L2042 1481L2041 1480M1553 1481L1554 1482L1553 1481M2040 1481L2041 1482L2040 1481M1552 1482L1553 1483L1552 1482M2039 1482L2040 1483L2039 1482M1551 1483L1552 1484L1551 1483M2038 1483L2039 1484L2038 1483M1550 1484L1551 1485L1550 1484M2037 1484L2038 1485L2037 1484M1549 1485L1550 1486L1549 1485M2036 1485L2037 1486L2036 1485M1548 1486L1549 1487L1548 1486M2035 1486L2036 1487L2035 1486M1547 1487L1548 1488L1547 1487M2034 1487L2035 1488L2034 1487M1546 1488L1547 1489L1546 1488M2030 1491L2034 1488L2030 1491M1545 1489L1546 1490L1545 1489M1544 1490L1545 1491L1544 1490M1543 1491L1544 1492L1543 1491M2029 1491L2028 1493L2030 1493L2029 1491M1542 1492L1543 1493L1542 1492M1541 1493L1542 1494L1541 1493M2027 1493L2028 1494L2027 1493M1540 1494L1541 1495L1540 1494M2026 1494L2027 1495L2026 1494M1539 1495L1540 1496L1539 1495M2025 1495L2026 1496L2025 1495M1538 1496L1539 1497L1538 1496M2024 1496L2025 1497L2024 1496M1537 1497L1538 1498L1537 1497M2023 1497L2024 1498L2023 1497M1536 1498L1537 1499L1536 1498M2022 1498L2023 1499L2022 1498M1535 1499L1536 1500L1535 1499M2021 1499L2022 1500L2021 1499M1534 1500L1535 1501L1534 1500M2020 1500L2021 1501L2020 1500M1533 1501L1534 1502L1533 1501M2019 1501L2020 1502L2019 1501M1532 1502L1533 1503L1532 1502M2018 1502L2019 1503L2018 1502M1531 1503L1532 1504L1531 1503M2017 1503L2018 1504L2017 1503M1530 1504L1531 1505L1530 1504M2016 1504L2017 1505L2016 1504M1529 1505L1530 1506L1529 1505M2015 1505L2016 1506L2015 1505M1528 1506L1529 1507L1528 1506M2014 1506L2015 1507L2014 1506M1527 1507L1528 1508L1527 1507M2013 1507L2014 1508L2013 1507M1526 1508L1527 1509L1526 1508M2012 1508L2013 1509L2012 1508M1525 1509L1526 1510L1525 1509M2011 1509L2012 1510L2011 1509M1524 1510L1525 1511L1524 1510M2010 1510L2011 1511L2010 1510M1523 1511L1524 1512L1523 1511M2009 1511L2010 1512L2009 1511M1522 1512L1523 1513L1522 1512M2008 1512L2009 1513L2008 1512M1521 1513L1522 1514L1521 1513M2007 1513L2008 1514L2007 1513M1520 1514L1521 1515L1520 1514M2006 1514L2007 1515L2006 1514M1519 1515L1520 1516L1519 1515M2004 1515L2004 1517L2006 1515L2004 1515M1518 1516L1519 1517L1518 1516M1517 1517L1518 1518L1517 1517M2002.67 1517.33L2003.33 1517.67L2002.67 1517.33M1516 1518L1517 1519L1516 1518M2001 1518L2000 1520L2002 1520L2001 1518M1515 1519L1516 1520L1515 1519M1514 1520L1515 1521L1514 1520M1999 1520L1998 1522L2000 1522L1999 1520M1513 1521L1514 1522L1513 1521M1512 1522L1513 1523L1512 1522M1997 1522L1998 1523L1997 1522M1511 1523L1512 1524L1511 1523M1996 1523L1997 1524L1996 1523M1510 1524L1511 1525L1510 1524M1995 1524L1996 1525L1995 1524M1509 1525L1510 1526L1509 1525M1994 1525L1995 1526L1994 1525M1508 1526L1509 1527L1508 1526M1993 1526L1994 1527L1993 1526M1507 1527L1508 1528L1507 1527M1992 1527L1993 1528L1992 1527M1506 1528L1507 1529L1506 1528M1991 1528L1992 1529L1991 1528z"/>
<path style="fill:#9d9d9e; stroke:none;" d="M140 1529L141 1530L140 1529z"/>
<path style="fill:#9fd0fb; stroke:none;" d="M1505 1529L1506 1530L1505 1529M1990 1529L1991 1530L1990 1529z"/>
<path style="fill:#9d9d9e; stroke:none;" d="M141 1530L142 1531L141 1530z"/>
<path style="fill:#9fd0fb; stroke:none;" d="M1504 1530L1505 1531L1504 1530M1989 1530L1990 1531L1989 1530M1503 1531L1504 1532L1503 1531M1988 1531L1989 1532L1988 1531z"/>
<path style="fill:#9d9d9e; stroke:none;" d="M143 1532L144 1533L143 1532z"/>
<path style="fill:#9fd0fb; stroke:none;" d="M1502 1532L1503 1533L1502 1532M1987 1532L1988 1533L1987 1532z"/>
<path style="fill:#9d9d9e; stroke:none;" d="M144 1533L145 1534L144 1533z"/>
<path style="fill:#9fd0fb; stroke:none;" d="M1501 1533L1502 1534L1501 1533M1986 1533L1987 1534L1986 1533M1500 1534L1501 1535L1500 1534M1985 1534L1986 1535L1985 1534z"/>
<path style="fill:#9d9d9e; stroke:none;" d="M146 1535L147 1536L146 1535z"/>
<path style="fill:#9fd0fb; stroke:none;" d="M1499 1535L1500 1536L1499 1535M1984 1535L1985 1536L1984 1535z"/>
<path style="fill:#9d9d9e; stroke:none;" d="M147 1536L148 1537L147 1536z"/>
<path style="fill:#9fd0fb; stroke:none;" d="M1498 1536L1499 1537L1498 1536M1983 1536L1984 1537L1983 1536M1497 1537L1498 1538L1497 1537M1982 1537L1983 1538L1982 1537M1496 1538L1497 1539L1496 1538M1981 1538L1982 1539L1981 1538M1495 1539L1496 1540L1495 1539M1980 1539L1981 1540L1980 1539z"/>
<path style="fill:#9d9d9e; stroke:none;" d="M151 1540L152 1541L151 1540z"/>
<path style="fill:#9fd0fb; stroke:none;" d="M1494 1540L1495 1541L1494 1540M1979 1540L1980 1541L1979 1540z"/>
<path style="fill:#9d9d9e; stroke:none;" d="M152 1541L153 1542L152 1541z"/>
<path style="fill:#9fd0fb; stroke:none;" d="M1493 1541L1494 1542L1493 1541M1978 1541L1979 1542L1978 1541z"/>
<path style="fill:#9d9d9e; stroke:none;" d="M153 1542L154 1543L153 1542z"/>
<path style="fill:#9fd0fb; stroke:none;" d="M1492 1542L1493 1543L1492 1542M1976 1542L1974 1545L1976 1542z"/>
<path style="fill:#9d9d9e; stroke:none;" d="M154 1543L155 1544L154 1543z"/>
<path style="fill:#9fd0fb; stroke:none;" d="M1491 1543L1492 1544L1491 1543M1490 1544L1491 1545L1490 1544z"/>
<path style="fill:#9d9d9e; stroke:none;" d="M156 1545L157 1546L156 1545z"/>
<path style="fill:#9fd0fb; stroke:none;" d="M1489 1545L1490 1546L1489 1545M1973 1545L1974 1546L1973 1545z"/>
<path style="fill:#9d9d9e; stroke:none;" d="M157 1546L158 1547L157 1546z"/>
<path style="fill:#9fd0fb; stroke:none;" d="M1488 1546L1489 1547L1488 1546M1972 1546L1973 1547L1972 1546M1487 1547L1488 1548L1487 1547M1971 1547L1972 1548L1971 1547z"/>
<path style="fill:#9d9d9e; stroke:none;" d="M159 1548L160 1549L159 1548z"/>
<path style="fill:#9fd0fb; stroke:none;" d="M1486 1548L1487 1549L1486 1548M1970 1548L1971 1549L1970 1548z"/>
<path style="fill:#9d9d9e; stroke:none;" d="M160 1549L161 1550L160 1549z"/>
<path style="fill:#9fd0fb; stroke:none;" d="M1485 1549L1486 1550L1485 1549M1969 1549L1970 1550L1969 1549M1484 1550L1485 1551L1484 1550M1968 1550L1969 1551L1968 1550M1483 1551L1484 1552L1483 1551M1967 1551L1968 1552L1967 1551M1482 1552L1483 1553L1482 1552M1966 1552L1967 1553L1966 1552M1481 1553L1482 1554L1481 1553M1965 1553L1966 1554L1965 1553M1480 1554L1481 1555L1480 1554M1964 1554L1965 1555L1964 1554M1479 1555L1480 1556L1479 1555M1963 1555L1964 1556L1963 1555M1478 1556L1479 1557L1478 1556M1962 1556L1963 1557L1962 1556M1477 1557L1478 1558L1477 1557M1961 1557L1962 1558L1961 1557M1476 1558L1477 1559L1476 1558M1960 1558L1961 1559L1960 1558M1475 1559L1476 1560L1475 1559M1959 1559L1960 1560L1959 1559M1474 1560L1475 1561L1474 1560M1958 1560L1959 1561L1958 1560M1473 1561L1474 1562L1473 1561M1957 1561L1958 1562L1957 1561M1472 1562L1473 1563L1472 1562M1956 1562L1957 1563L1956 1562M1471 1563L1472 1564L1471 1563M1955 1563L1956 1564L1955 1563M1470 1564L1471 1565L1470 1564M1954 1564L1955 1565L1954 1564M1469 1565L1470 1566L1469 1565M1953 1565L1954 1566L1953 1565M1468 1566L1469 1567L1468 1566M1947 1571L1953 1566L1947 1571M1467 1567L1468 1568L1467 1567M1466 1568L1467 1569L1466 1568M1465 1569L1466 1570L1465 1569M1464 1570L1465 1571L1464 1570M1463 1571L1464 1572L1463 1571M1946 1571L1947 1572L1946 1571M1462 1572L1463 1573L1462 1572M1945 1572L1946 1573L1945 1572M1461 1573L1462 1574L1461 1573M1944 1573L1945 1574L1944 1573M1460 1574L1461 1575L1460 1574M1943 1574L1944 1575L1943 1574M1459 1575L1460 1576L1459 1575M1942 1575L1943 1576L1942 1575M1458 1576L1459 1577L1458 1576M1941 1576L1942 1577L1941 1576M1457 1577L1458 1578L1457 1577M1940 1577L1941 1578L1940 1577M1456 1578L1457 1579L1456 1578M1939 1578L1940 1579L1939 1578M1455 1579L1456 1580L1455 1579M1938 1579L1939 1580L1938 1579M1454 1580L1455 1581L1454 1580M1937 1580L1938 1581L1937 1580M1453 1581L1454 1582L1453 1581M1936 1581L1937 1582L1936 1581M1452 1582L1453 1583L1452 1582M1935 1582L1936 1583L1935 1582M1451 1583L1452 1584L1451 1583M1934 1583L1935 1584L1934 1583M1450 1584L1451 1585L1450 1584M1933 1584L1934 1585L1933 1584M1449 1585L1450 1586L1449 1585M1932 1585L1933 1586L1932 1585M1448 1586L1449 1587L1448 1586M1931 1586L1932 1587L1931 1586M1447 1587L1448 1588L1447 1587M1930 1587L1931 1588L1930 1587M1446 1588L1447 1589L1446 1588M1929 1588L1930 1589L1929 1588M1445 1589L1446 1590L1445 1589M1928 1589L1929 1590L1928 1589M1444 1590L1445 1591L1444 1590M1927 1590L1928 1591L1927 1590M1443 1591L1444 1592L1443 1591M1926 1591L1927 1592L1926 1591M1442 1592L1443 1593L1442 1592M1923 1594L1926 1592L1923 1594M1441 1593L1442 1594L1441 1593M1440 1594L1441 1595L1440 1594M1922 1594L1923 1595L1922 1594M1439 1595L1440 1596L1439 1595M1921 1595L1922 1596L1921 1595M1438 1596L1439 1597L1438 1596M1920 1596L1921 1597L1920 1596M1437 1597L1438 1598L1437 1597M1919 1597L1920 1598L1919 1597M1436 1598L1437 1599L1436 1598M1918 1598L1919 1599L1918 1598M1435 1599L1436 1600L1435 1599M1917 1599L1918 1600L1917 1599M1434 1600L1435 1601L1434 1600M1916 1600L1917 1601L1916 1600M1433 1601L1434 1602L1433 1601M1915 1601L1916 1602L1915 1601M1432 1602L1433 1603L1432 1602M1914 1602L1915 1603L1914 1602M887.667 1603.33L888.333 1603.67L887.667 1603.33M1215.67 1603.33L1216.33 1603.67L1215.67 1603.33M1431 1603L1432 1604L1431 1603M1913 1603L1914 1604L1913 1603M1430 1604L1431 1605L1430 1604M1912 1604L1913 1605L1912 1604M1429 1605L1430 1606L1429 1605M1911 1605L1912 1606L1911 1605M1428 1606L1429 1607L1428 1606M1910 1606L1911 1607L1910 1606M1427 1607L1428 1608L1427 1607M1909 1607L1910 1608L1909 1607M1426 1608L1427 1609L1426 1608M1908 1608L1909 1609L1908 1608M1425 1609L1426 1610L1425 1609M1907 1609L1908 1610L1907 1609M1424 1610L1425 1611L1424 1610M1906 1610L1907 1611L1906 1610M1423 1611L1424 1612L1423 1611M1905 1611L1906 1612L1905 1611M1422 1612L1423 1613L1422 1612M1904 1612L1905 1613L1904 1612z"/>
<path style="fill:#9d9d9e; stroke:none;" d="M223 1613L224 1614L223 1613z"/>
<path style="fill:#9fd0fb; stroke:none;" d="M1421 1613L1422 1614L1421 1613M1903 1613L1904 1614L1903 1613M1420 1614L1421 1615L1420 1614M1902 1614L1903 1615L1902 1614M1419 1615L1420 1616L1419 1615M1901 1615L1902 1616L1901 1615M1418 1616L1419 1617L1418 1616M1900 1616L1901 1617L1900 1616M1417 1617L1418 1618L1417 1617M1899 1617L1900 1618L1899 1617z"/>
<path style="fill:#9d9d9e; stroke:none;" d="M228 1618L229 1619L228 1618z"/>
<path style="fill:#9fd0fb; stroke:none;" d="M1416 1618L1417 1619L1416 1618M1895 1622L1899 1618L1895 1622z"/>
<path style="fill:#9d9d9e; stroke:none;" d="M229 1619L230 1620L229 1619z"/>
<path style="fill:#9fd0fb; stroke:none;" d="M1415 1619L1416 1620L1415 1619z"/>
<path style="fill:#9d9d9e; stroke:none;" d="M230 1620L231 1621L230 1620z"/>
<path style="fill:#9fd0fb; stroke:none;" d="M1414 1620L1415 1621L1414 1620z"/>
<path style="fill:#9d9d9e; stroke:none;" d="M231 1621L232 1622L231 1621z"/>
<path style="fill:#9fd0fb; stroke:none;" d="M1413 1621L1414 1622L1413 1621M1412 1622L1413 1623L1412 1622M1893 1622L1894 1623L1893 1622z"/>
<path style="fill:#9d9d9e; stroke:none;" d="M233 1623L234 1624L233 1623z"/>
<path style="fill:#9fd0fb; stroke:none;" d="M1411 1623L1412 1624L1411 1623M1892 1623L1893 1624L1892 1623M1410 1624L1411 1625L1410 1624M1891 1624L1892 1625L1891 1624M1409 1625L1410 1626L1409 1625M1890 1625L1891 1626L1890 1625M1408 1626L1409 1627L1408 1626M1889 1626L1890 1627L1889 1626M1407 1627L1408 1628L1407 1627M1888 1627L1889 1628L1888 1627z"/>
<path style="fill:#9d9d9e; stroke:none;" d="M238 1628L239 1629L238 1628z"/>
<path style="fill:#9fd0fb; stroke:none;" d="M1406 1628L1407 1629L1406 1628M1887 1628L1888 1629L1887 1628z"/>
<path style="fill:#9d9d9e; stroke:none;" d="M239 1629L240 1630L239 1629z"/>
<path style="fill:#9fd0fb; stroke:none;" d="M1405 1629L1406 1630L1405 1629M1886 1629L1887 1630L1886 1629M1404 1630L1405 1631L1404 1630M1885 1630L1886 1631L1885 1630M1403 1631L1404 1632L1403 1631M1884 1631L1885 1632L1884 1631M1402 1632L1403 1633L1402 1632M1883 1632L1884 1633L1883 1632M1401 1633L1402 1634L1401 1633M1882 1633L1883 1634L1882 1633M1400 1634L1401 1635L1400 1634M1881 1634L1882 1635L1881 1634M1399 1635L1400 1636L1399 1635M1880 1635L1881 1636L1880 1635M1398 1636L1399 1637L1398 1636M1879 1636L1880 1637L1879 1636M1397 1637L1398 1638L1397 1637M1878 1637L1879 1638L1878 1637M1396 1638L1397 1639L1396 1638M1877 1638L1878 1639L1877 1638M1395 1639L1396 1640L1395 1639M1876 1639L1877 1640L1876 1639M1394 1640L1395 1641L1394 1640M1875 1640L1876 1641L1875 1640M1393 1641L1394 1642L1393 1641M1874 1641L1875 1642L1874 1641M1392 1642L1393 1643L1392 1642M1873 1642L1874 1643L1873 1642M1391 1643L1392 1644L1391 1643M1872 1643L1873 1644L1872 1643M1390 1644L1391 1645L1390 1644M1871 1644L1872 1645L1871 1644M1389 1645L1390 1646L1389 1645M1870 1645L1871 1646L1870 1645M1388 1646L1389 1647L1388 1646M1866 1649L1870 1646L1866 1649M1387 1647L1388 1648L1387 1647M1386 1648L1387 1649L1386 1648M1385 1649L1386 1650L1385 1649M1865 1649L1864 1651L1866 1651L1865 1649M1384 1650L1385 1651L1384 1650M1383 1651L1384 1652L1383 1651M1863 1651L1864 1652L1863 1651M1382 1652L1383 1653L1382 1652M1862 1652L1863 1653L1862 1652M1381 1653L1382 1654L1381 1653M1861 1653L1862 1654L1861 1653M1380 1654L1381 1655L1380 1654M1860 1654L1861 1655L1860 1654M1379 1655L1380 1656L1379 1655M1859 1655L1860 1656L1859 1655M1378 1656L1379 1657L1378 1656M1858 1656L1859 1657L1858 1656M1377 1657L1378 1658L1377 1657M1857 1657L1858 1658L1857 1657M1376 1658L1377 1659L1376 1658M1856 1658L1857 1659L1856 1658M1375 1659L1376 1660L1375 1659M1855 1659L1856 1660L1855 1659M1374 1660L1375 1661L1374 1660M1854 1660L1855 1661L1854 1660M1373 1661L1374 1662L1373 1661M1853 1661L1854 1662L1853 1661M1372 1662L1373 1663L1372 1662M1852 1662L1853 1663L1852 1662M1371 1663L1372 1664L1371 1663M1851 1663L1852 1664L1851 1663M1370 1664L1371 1665L1370 1664M1850 1664L1851 1665L1850 1664M1369 1665L1370 1666L1369 1665M1849 1665L1850 1666L1849 1665M1368 1666L1369 1667L1368 1666M1848 1666L1849 1667L1848 1666M1367 1667L1368 1668L1367 1667M1847 1667L1848 1668L1847 1667M1366 1668L1367 1669L1366 1668M1846 1668L1847 1669L1846 1668M1365 1669L1366 1670L1365 1669M1845 1669L1846 1670L1845 1669M1364 1670L1365 1671L1364 1670M1844 1670L1845 1671L1844 1670M1363 1671L1364 1672L1363 1671M1843 1671L1844 1672L1843 1671M1362 1672L1363 1673L1362 1672M1842 1672L1843 1673L1842 1672M1361 1673L1362 1674L1361 1673M1837 1677L1842 1673L1837 1677M1360 1674L1361 1675L1360 1674M1359 1675L1360 1676L1359 1675M1358 1676L1359 1677L1358 1676M1357 1677L1358 1678L1357 1677M1836 1677L1837 1678L1836 1677M1835 1678L1836 1679L1835 1678M1834 1679L1835 1680L1834 1679M1833 1680L1834 1681L1833 1680M1832 1681L1833 1682L1832 1681M1831 1682L1832 1683L1831 1682M1830 1683L1831 1684L1830 1683M1829 1684L1830 1685L1829 1684M1828 1685L1829 1686L1828 1685M1827 1686L1828 1687L1827 1686M1826 1687L1827 1688L1826 1687M1825 1688L1826 1689L1825 1688M1824 1689L1825 1690L1824 1689M1823 1690L1824 1691L1823 1690M1822 1691L1823 1692L1822 1691M1821 1692L1822 1693L1821 1692M1817 1696L1821 1693L1817 1696M1816 1696L1815 1698L1817 1698L1816 1696M1814 1698L1813 1700L1815 1700L1814 1698z"/>
<path style="fill:#9d9d9e; stroke:none;" d="M309 1700L310 1701L309 1700z"/>
<path style="fill:#9fd0fb; stroke:none;" d="M1812 1700L1813 1701L1812 1700z"/>
<path style="fill:#9d9d9e; stroke:none;" d="M310 1701L311 1702L310 1701z"/>
<path style="fill:#9fd0fb; stroke:none;" d="M1811 1701L1812 1702L1811 1701z"/>
<path style="fill:#9d9d9e; stroke:none;" d="M311 1702L312 1703L311 1702z"/>
<path style="fill:#9fd0fb; stroke:none;" d="M1810 1702L1811 1703L1810 1702z"/>
<path style="fill:#9d9d9e; stroke:none;" d="M312 1703L313 1704L312 1703z"/>
<path style="fill:#9fd0fb; stroke:none;" d="M1809 1703L1810 1704L1809 1703z"/>
<path style="fill:#9d9d9e; stroke:none;" d="M313 1704L314 1705L313 1704z"/>
<path style="fill:#9fd0fb; stroke:none;" d="M1808 1704L1809 1705L1808 1704M1807 1705L1808 1706L1807 1705z"/>
<path style="fill:#9d9d9e; stroke:none;" d="M315 1706L316 1707L315 1706z"/>
<path style="fill:#9fd0fb; stroke:none;" d="M1806 1706L1807 1707L1806 1706M1805 1707L1806 1708L1805 1707M1804 1708L1805 1709L1804 1708M1803 1709L1804 1710L1803 1709M1802 1710L1803 1711L1802 1710M1801 1711L1802 1712L1801 1711M1800 1712L1801 1713L1800 1712M1799 1713L1800 1714L1799 1713M1798 1714L1799 1715L1798 1714M1797 1715L1798 1716L1797 1715M1796 1716L1797 1717L1796 1716M1795 1717L1796 1718L1795 1717M1792 1720L1795 1718L1792 1720M1791 1720L1792 1721L1791 1720M1790 1721L1791 1722L1790 1721M1789 1722L1790 1723L1789 1722M1788 1723L1789 1724L1788 1723M1787 1724L1788 1725L1787 1724M1786 1725L1787 1726L1786 1725M1785 1726L1786 1727L1785 1726M1784 1727L1785 1728L1784 1727M1783 1728L1784 1729L1783 1728M1782 1729L1783 1730L1782 1729M1781 1730L1782 1731L1781 1730M1780 1731L1781 1732L1780 1731M1779 1732L1780 1733L1779 1732M1778 1733L1779 1734L1778 1733M1777 1734L1778 1735L1777 1734M1776 1735L1777 1736L1776 1735M1775 1736L1776 1737L1775 1736M1774 1737L1775 1738L1774 1737M1773 1738L1774 1739L1773 1738M1772 1739L1773 1740L1772 1739M1771 1740L1772 1741L1771 1740M1770 1741L1771 1742L1770 1741M1767 1745L1770 1742L1767 1745M1766 1745L1767 1746L1766 1745M1760 1751L1766 1746L1760 1751M1759 1751L1760 1752L1759 1751M1758 1752L1759 1753L1758 1752M1757 1753L1758 1754L1757 1753M1756 1754L1757 1755L1756 1754M1755 1755L1756 1756L1755 1755M1754 1756L1755 1757L1754 1756M1753 1757L1754 1758L1753 1757M1752 1758L1753 1759L1752 1758M1751 1759L1752 1760L1751 1759M1750 1760L1751 1761L1750 1760M1749 1761L1750 1762L1749 1761M1748 1762L1749 1763L1748 1762M1747 1763L1748 1764L1747 1763M1746 1764L1747 1765L1746 1764M1745 1765L1746 1766L1745 1765M1744 1766L1745 1767L1744 1766z"/>
<path style="fill:#9d9d9e; stroke:none;" d="M375 1767L376 1768L375 1767z"/>
<path style="fill:#9fd0fb; stroke:none;" d="M1743 1767L1744 1768L1743 1767M1742 1768L1743 1769L1742 1768z"/>
<path style="fill:#9d9d9e; stroke:none;" d="M377 1769L378 1770L377 1769z"/>
<path style="fill:#9fd0fb; stroke:none;" d="M1741 1769L1742 1770L1741 1769z"/>
<path style="fill:#9d9d9e; stroke:none;" d="M378 1770L379 1771L378 1770z"/>
<path style="fill:#9fd0fb; stroke:none;" d="M1740 1770L1741 1771L1740 1770M1739 1771L1740 1772L1739 1771M1733 1777L1739 1772L1733 1777z"/>
<path style="fill:#9d9d9e; stroke:none;" d="M381 1773L382 1774L381 1773M382 1774L383 1775L382 1774M383 1775L384 1776L383 1775M384 1776L385 1777L384 1776M385 1777L386 1778L385 1777z"/>
<path style="fill:#9fd0fb; stroke:none;" d="M1732 1777L1733 1778L1732 1777M1731 1778L1732 1779L1731 1778M1730 1779L1731 1780L1730 1779M1729 1780L1730 1781L1729 1780M1728 1781L1729 1782L1728 1781M1727 1782L1728 1783L1727 1782M1726 1783L1727 1784L1726 1783M1725 1784L1726 1785L1725 1784M1724 1785L1725 1786L1724 1785M1723 1786L1724 1787L1723 1786M1722 1787L1723 1788L1722 1787M1721 1788L1722 1789L1721 1788M1720 1789L1721 1790L1720 1789M1719 1790L1720 1791L1719 1790M1718 1791L1719 1792L1718 1791M1717 1792L1718 1793L1717 1792M1716 1793L1717 1794L1716 1793M1715 1794L1716 1795L1715 1794M1714 1795L1715 1796L1714 1795M1713 1796L1714 1797L1713 1796M1712 1797L1713 1798L1712 1797M1711 1798L1712 1799L1711 1798M1708 1801L1711 1799L1708 1801M1707 1801L1708 1802L1707 1801M1706 1802L1707 1803L1706 1802M1705 1803L1706 1804L1705 1803M1704 1804L1705 1805L1704 1804M1703 1805L1704 1806L1703 1805M1702 1806L1703 1807L1702 1806M1701 1807L1702 1808L1701 1807M1700 1808L1701 1809L1700 1808M1699 1809L1700 1810L1699 1809M1698 1810L1699 1811L1698 1810M1697 1811L1698 1812L1697 1811M1696 1812L1697 1813L1696 1812M1695 1813L1696 1814L1695 1813M1694 1814L1695 1815L1694 1814M1693 1815L1694 1816L1693 1815M1692 1816L1693 1817L1692 1816M1691 1817L1692 1818L1691 1817M1690 1818L1691 1819L1690 1818M1689 1819L1690 1820L1689 1819M1688 1820L1689 1821L1688 1820M1687 1821L1688 1822L1687 1821M1686 1822L1687 1823L1686 1822M1685 1823L1686 1824L1685 1823M1680 1828L1685 1824L1680 1828M1679 1828L1680 1829L1679 1828M1678 1829L1679 1830L1678 1829M1677 1830L1678 1831L1677 1830M1676 1831L1677 1832L1676 1831M1675 1832L1676 1833L1675 1832M1674 1833L1675 1834L1674 1833M1673 1834L1674 1835L1673 1834M1672 1835L1673 1836L1672 1835M1671 1836L1672 1837L1671 1836M1670 1837L1671 1838L1670 1837M1669 1838L1670 1839L1669 1838M1668 1839L1669 1840L1668 1839M1667 1840L1668 1841L1667 1840M1666 1841L1667 1842L1666 1841M1665 1842L1666 1843L1665 1842M1664 1843L1665 1844L1664 1843M1663 1844L1664 1845L1663 1844M1662 1845L1663 1846L1662 1845M1661 1846L1662 1847L1661 1846M1660 1847L1661 1848L1660 1847M1659 1848L1660 1849L1659 1848z"/>
<path style="fill:#9d9d9e; stroke:none;" d="M456 1849L457 1850L456 1849z"/>
<path style="fill:#9fd0fb; stroke:none;" d="M1658 1849L1659 1850L1658 1849M1657 1850L1658 1851L1657 1850z"/>
<path style="fill:#9d9d9e; stroke:none;" d="M458 1851L459 1852L458 1851z"/>
<path style="fill:#9fd0fb; stroke:none;" d="M1651 1856L1657 1851L1651 1856z"/>
<path style="fill:#9d9d9e; stroke:none;" d="M460 1853L461 1854L460 1853M461 1854L462 1855L461 1854M462 1855L463 1856L462 1855M463 1856L464 1857L463 1856z"/>
<path style="fill:#9fd0fb; stroke:none;" d="M1650 1856L1651 1857L1650 1856M1649 1857L1650 1858L1649 1857z"/>
<path style="fill:#9d9d9e; stroke:none;" d="M465 1858L466 1859L465 1858z"/>
<path style="fill:#9fd0fb; stroke:none;" d="M1648 1858L1649 1859L1648 1858M1647 1859L1648 1860L1647 1859z"/>
<path style="fill:#9d9d9e; stroke:none;" d="M467 1860L468 1861L467 1860z"/>
<path style="fill:#9fd0fb; stroke:none;" d="M1646 1860L1647 1861L1646 1860M1645 1861L1646 1862L1645 1861M1644 1862L1645 1863L1644 1862z"/>
<path style="fill:#9d9d9e; stroke:none;" d="M470 1863L471 1864L470 1863z"/>
<path style="fill:#9fd0fb; stroke:none;" d="M1643 1863L1644 1864L1643 1863M1642 1864L1643 1865L1642 1864M1641 1865L1642 1866L1641 1865M1640 1866L1641 1867L1640 1866M1639 1867L1640 1868L1639 1867M1638 1868L1639 1869L1638 1868z"/>
<path style="fill:#9d9d9e; stroke:none;" d="M476 1869L477 1870L476 1869z"/>
<path style="fill:#9fd0fb; stroke:none;" d="M1637 1869L1638 1870L1637 1869M1636 1870L1637 1871L1636 1870M1635 1871L1636 1872L1635 1871M1634 1872L1635 1873L1634 1872M1633 1873L1634 1874L1633 1873M1631 1874L1631 1876L1633 1874L1631 1874M1628 1878L1631 1876L1628 1878M1627 1878L1626 1880L1628 1880L1627 1878M1625 1880L1626 1881L1625 1880M1624 1881L1625 1882L1624 1881M1623 1882L1624 1883L1623 1882M1622 1883L1623 1884L1622 1883M1621 1884L1622 1885L1621 1884M1620 1885L1621 1886L1620 1885M1619 1886L1620 1887L1619 1886M1618 1887L1619 1888L1618 1887M1617 1888L1618 1889L1617 1888M1616 1889L1617 1890L1616 1889M1615 1890L1616 1891L1615 1890M1614 1891L1615 1892L1614 1891M1613 1892L1614 1893L1613 1892M1612 1893L1613 1894L1612 1893M1611 1894L1612 1895L1611 1894M1610 1895L1611 1896L1610 1895M1609 1896L1610 1897L1609 1896M1608 1897L1609 1898L1608 1897M1607 1898L1608 1899L1607 1898M1606 1899L1607 1900L1606 1899M1605 1900L1606 1901L1605 1900M1604 1901L1605 1902L1604 1901M1600 1905L1604 1902L1600 1905M1599 1905L1600 1906L1599 1905M1598 1906L1599 1907L1598 1906M1597 1907L1598 1908L1597 1907M1596 1908L1597 1909L1596 1908M1595 1909L1596 1910L1595 1909M1594 1910L1595 1911L1594 1910M1593 1911L1594 1912L1593 1911M1592 1912L1593 1913L1592 1912M1591 1913L1592 1914L1591 1913M1590 1914L1591 1915L1590 1914M1589 1915L1590 1916L1589 1915M1588 1916L1589 1917L1588 1916M1587 1917L1588 1918L1587 1917M1586 1918L1587 1919L1586 1918M1585 1919L1586 1920L1585 1919M1584 1920L1585 1921L1584 1920M1583 1921L1584 1922L1583 1921M1582 1922L1583 1923L1582 1922M1581 1923L1582 1924L1581 1923M1580 1924L1581 1925L1580 1924M1579 1925L1580 1926L1579 1925M1578 1926L1579 1927L1578 1926M1573 1931L1578 1927L1573 1931M1572 1931L1573 1932L1572 1931M1571 1932L1572 1933L1571 1932M1570 1933L1571 1934L1570 1933M1569 1934L1570 1935L1569 1934M1568 1935L1569 1936L1568 1935M1567 1936L1568 1937L1567 1936M1566 1937L1567 1938L1566 1937M1565 1938L1566 1939L1565 1938M1564 1939L1565 1940L1564 1939z"/>
<path style="fill:#9d9d9e; stroke:none;" d="M546 1940L547 1941L546 1940z"/>
<path style="fill:#9fd0fb; stroke:none;" d="M1563 1940L1564 1941L1563 1940M1562 1941L1563 1942L1562 1941M1561 1942L1562 1943L1561 1942z"/>
<path style="fill:#9d9d9e; stroke:none;" d="M549 1943L550 1944L549 1943z"/>
<path style="fill:#9fd0fb; stroke:none;" d="M1560 1943L1561 1944L1560 1943M1559 1944L1560 1945L1559 1944z"/>
<path style="fill:#9d9d9e; stroke:none;" d="M551 1945L552 1946L551 1945z"/>
<path style="fill:#9fd0fb; stroke:none;" d="M1558 1945L1559 1946L1558 1945z"/>
<path style="fill:#9d9d9e; stroke:none;" d="M552 1946L553 1947L552 1946z"/>
<path style="fill:#9fd0fb; stroke:none;" d="M1557 1946L1558 1947L1557 1946M1556 1947L1557 1948L1556 1947M1555 1948L1556 1949L1555 1948z"/>
<path style="fill:#9d9d9e; stroke:none;" d="M555 1949L556 1950L555 1949z"/>
<path style="fill:#9fd0fb; stroke:none;" d="M1554 1949L1555 1950L1554 1949z"/>
<path style="fill:#9d9d9e; stroke:none;" d="M556 1950L557 1951L556 1950z"/>
<path style="fill:#9fd0fb; stroke:none;" d="M1553 1950L1554 1951L1553 1950M1549 1954L1553 1951L1549 1954z"/>
<path style="fill:#9d9d9e; stroke:none;" d="M558 1952L559 1953L558 1952z"/>
<path style="fill:#9fd0fb; stroke:none;" d="M1548 1954L1549 1955L1548 1954M1547 1955L1548 1956L1547 1955M1546 1956L1547 1957L1546 1956M1545 1957L1546 1958L1545 1957M1544 1958L1545 1959L1544 1958M1543 1959L1544 1960L1543 1959M1542 1960L1543 1961L1542 1960M1541 1961L1542 1962L1541 1961M1540 1962L1541 1963L1540 1962M1539 1963L1540 1964L1539 1963M1538 1964L1539 1965L1538 1964M1537 1965L1538 1966L1537 1965M1536 1966L1537 1967L1536 1966M1535 1967L1536 1968L1535 1967M1534 1968L1535 1969L1534 1968M1533 1969L1534 1970L1533 1969M1532 1970L1533 1971L1532 1970M1531 1971L1532 1972L1531 1971M1530 1972L1531 1973L1530 1972M1529 1973L1530 1974L1529 1973M1528 1974L1529 1975L1528 1974M1527 1975L1528 1976L1527 1975M1526 1976L1527 1977L1526 1976M1525 1977L1526 1978L1525 1977M1517 1985L1525 1978L1517 1985M1516 1985L1517 1986L1516 1985M1515 1986L1516 1987L1515 1986M1514 1987L1515 1988L1514 1987M1513 1988L1514 1989L1513 1988M1512 1989L1513 1990L1512 1989M1511 1990L1512 1991L1511 1990M1510 1991L1511 1992L1510 1991M1509 1992L1510 1993L1509 1992M1508 1993L1509 1994L1508 1993M1507 1994L1508 1995L1507 1994M1506 1995L1507 1996L1506 1995M1505 1996L1506 1997L1505 1996M1504 1997L1505 1998L1504 1997M1503 1998L1504 1999L1503 1998M1502 1999L1503 2000L1502 1999M1501 2000L1502 2001L1501 2000M1500 2001L1501 2002L1500 2001M1499 2002L1500 2003L1499 2002M1498 2003L1499 2004L1498 2003M1497 2004L1498 2005L1497 2004M1495.33 2005.67L1495.67 2006.33L1495.33 2005.67M1493 2007L1494 2008L1493 2007M1492 2008L1493 2009L1492 2008M1491 2009L1490 2011L1492 2011L1491 2009M1489 2011L1490 2012L1489 2011M1488 2012L1489 2013L1488 2012M1487 2013L1488 2014L1487 2013M1486 2014L1487 2015L1486 2014M1485 2015L1486 2016L1485 2015M1484 2016L1485 2017L1484 2016M1483 2017L1484 2018L1483 2017z"/>
<path style="fill:#9d9d9e; stroke:none;" d="M623 2018L624 2019L623 2018z"/>
<path style="fill:#9fd0fb; stroke:none;" d="M1482 2018L1483 2019L1482 2018M1481 2019L1482 2020L1481 2019M1480 2020L1481 2021L1480 2020z"/>
<path style="fill:#9d9d9e; stroke:none;" d="M626 2021L627 2022L626 2021z"/>
<path style="fill:#9fd0fb; stroke:none;" d="M1479 2021L1480 2022L1479 2021z"/>
<path style="fill:#9d9d9e; stroke:none;" d="M627 2022L628 2023L627 2022z"/>
<path style="fill:#9fd0fb; stroke:none;" d="M1478 2022L1479 2023L1478 2022z"/>
<path style="fill:#9d9d9e; stroke:none;" d="M628 2023L629 2024L628 2023z"/>
<path style="fill:#9fd0fb; stroke:none;" d="M1477 2023L1478 2024L1477 2023M1476 2024L1477 2025L1476 2024z"/>
<path style="fill:#9d9d9e; stroke:none;" d="M630 2025L631 2026L630 2025z"/>
<path style="fill:#9fd0fb; stroke:none;" d="M1475 2025L1476 2026L1475 2025M1474 2026L1475 2027L1474 2026M1473 2027L1474 2028L1473 2027M1472 2028L1473 2029L1472 2028M1471 2029L1472 2030L1471 2029z"/>
<path style="fill:#9d9d9e; stroke:none;" d="M635 2030L636 2031L635 2030z"/>
<path style="fill:#9fd0fb; stroke:none;" d="M1470 2030L1471 2031L1470 2030M1469 2031L1470 2032L1469 2031M1466 2034L1469 2032L1466 2034M1465 2034L1464 2036L1466 2036L1465 2034M1463 2036L1464 2037L1463 2036M1462 2037L1463 2038L1462 2037M1461 2038L1462 2039L1461 2038M1460 2039L1461 2040L1460 2039M1459 2040L1460 2041L1459 2040M1458 2041L1459 2042L1458 2041M1457 2042L1458 2043L1457 2042M1456 2043L1457 2044L1456 2043M1455 2044L1456 2045L1455 2044M1454 2045L1455 2046L1454 2045M1453 2046L1454 2047L1453 2046M1452 2047L1453 2048L1452 2047M1451 2048L1452 2049L1451 2048M1450 2049L1451 2050L1450 2049M1449 2050L1450 2051L1449 2050M1448 2051L1449 2052L1448 2051M1447 2052L1448 2053L1447 2052M1357 2053L1358 2054L1357 2053M1443 2053L1443 2054L1446 2054L1443 2053z"/>
</svg>
